<?xml version="1.0" standalone="no"?>
<!DOCTYPE svg PUBLIC "-//W3C//DTD SVG 1.1//EN" "http://www.w3.org/Graphics/SVG/1.1/DTD/svg11.dtd">
<svg xmlns="http://www.w3.org/2000/svg"><metadata>This SVG WebFont was generated by YouWorkForThem.
Copyright Â© 2017 by Doni Sukma. All rights reserved.</metadata><defs><font horiz-adv-x="0" id="ywftsvg"><font-face ascent="1638" bbox="-981 -461 4209 2044" cap-height="1485" descent="-410" font-family="" font-stretch="normal" font-weight="500" panose-1="0 0 6 0 0 0 0 0 0 0" underline-position="0" underline-thickness="0" unicode-range="U+000D-FB02" units-per-em="2048" x-height="1059"/><missing-glyph d="M90 1485h1038v-1485h-1038v1485z" horiz-adv-x="1214"/><glyph d="M1092 1059v-1059h-207v885h-451v-885h-207v885h-176v174h176v135q0 70 14.5 128t48.5 112.5t99.5 86t155.5 31.5q84 0 145 -16v-168q-49 6 -92 6q-57 0 -94 -17.5t-50.5 -53t-16.5 -61t-3 -75.5v-108h658zM858 1503h258v-207h-258v207z" glyph-name="uniFB01" horiz-adv-x="1275" unicode="fi"/><glyph d="M862 1536h207v-1536h-207v885h-428v-885h-207v885h-176v174h176v135q0 70 14.5 128t48.5 112.5t99.5 86t155.5 31.5q84 0 145 -16v-168q-49 6 -92 6q-57 0 -93 -17.5t-50.5 -53t-17.5 -62.5t-3 -74v-108h428v477z" glyph-name="uniFB02" horiz-adv-x="1241" unicode="fl"/><glyph d="M1286 1374q-57 0 -94 -17.5t-50.5 -53t-16.5 -61t-3 -75.5v-108h256v-174h-256v-885h-207v885h-481v-885h-207v885h-176v174h176v135q0 70 14.5 128t48.5 112.5t99.5 86t155.5 31.5q84 0 145 -16v-168q-49 6 -92 6q-57 0 -94 -17.5t-50.5 -53t-16.5 -61t-3 -75.5v-108 h481v135q0 70 14.5 128t48.5 112.5t99.5 86t155.5 31.5q84 0 145 -16v-168q-49 6 -92 6z" glyph-name="f_f.liga" horiz-adv-x="1376" unicode="ff"/><glyph d="M1403 885h-254v-535q0 -104 37 -148t123 -44q37 0 94 8v-166q-88 -18 -148 -18q-311 0 -311 337v566h-510v-885h-207v885h-176v174h176v135q0 70 14.5 128t48.5 112.5t99.5 86t155.5 31.5q84 0 145 -16v-168q-49 6 -92 6q-57 0 -94 -17.5t-50.5 -53t-16.5 -61t-3 -75.5 v-108h383q74 0 100.5 29.5t26.5 97.5v168h205v-295h254v-174z" glyph-name="f_t.liga" horiz-adv-x="1462" unicode="ft"/><glyph d="M944 1503h256v-207h-256v207zM1176 1059v-1059h-207v885h-508v-535q0 -104 37 -148t123 -44q37 0 94 8v-166q-88 -18 -148 -18q-311 0 -311 337v566h-219v174h90q74 0 101.5 30.5t27.5 96.5v168h205v-295h715z" glyph-name="t_i.liga" horiz-adv-x="1368" unicode="ti"/><glyph d="M90 1485h1038v-1485h-1038v1485z" glyph-name=".notdef" horiz-adv-x="1214"/><glyph glyph-name="glyph1"/><glyph glyph-name="glyph2" horiz-adv-x="681"/><glyph glyph-name="space" horiz-adv-x="460" unicode=" "/><glyph d="M264 418l-41 626v441h207v-441l-39 -626h-127zM211 0v211h233v-211h-233z" glyph-name="exclam" horiz-adv-x="655" unicode="!"/><glyph d="M283 868h-107l-45 338v299h197v-299zM639 868h-107l-47 338v299h199v-299z" glyph-name="quotedbl" horiz-adv-x="815" unicode="&quot;"/><glyph d="M1231 844h-219l-43 -174h227l-45 -181h-223l-117 -489h-186l116 489l-264 -2l-115 -487h-186l115 487h-213l45 181h211l41 174h-215l45 182h213l119 506h186l-119 -506l264 2l119 504h187l-119 -504h221zM782 670l43 174l-264 -2l-41 -174z" glyph-name="numbersign" horiz-adv-x="1353" unicode="#"/><glyph d="M1092 481q0 -160 -107.5 -257t-290.5 -113v-181h-151v181q-190 18 -295 126.5t-105 276.5h207q0 -115 71 -173t202 -58q121 0 186 49t65 137q0 133 -176 176l-196 49q-324 82 -324 346q0 147 97.5 243.5t267.5 113.5v174h151v-174q166 -20 264.5 -115.5t100.5 -251.5 h-209q-2 88 -65.5 142.5t-174.5 54.5q-102 0 -159.5 -46t-57.5 -126q0 -70 46 -110t143 -62l192 -49q318 -79 318 -353z" glyph-name="dollar" horiz-adv-x="1224" unicode="$"/><glyph d="M395 762q-123 0 -200.5 98t-77.5 274.5t78.5 272.5t201.5 96q125 0 203 -97t78 -273.5t-80 -273.5t-203 -97zM240 0l964 1485h152l-965 -1485h-151zM397 901q61 0 93 64.5t32 169.5q0 106 -32.5 169.5t-92.5 63.5q-61 0 -92 -63.5t-31 -170t32 -170t91 -63.5zM1223 -20 q-125 0 -203 98t-78 274t79 272.5t202 96.5q125 0 202.5 -97.5t77.5 -273.5t-78.5 -273t-201.5 -97zM1224.5 119q61.5 0 92.5 63.5t31 167.5q0 109 -33 171.5t-92 62.5q-61 0 -92 -63.5t-31 -170t31.5 -169t93 -62.5z" glyph-name="percent" horiz-adv-x="1619" unicode="%"/><glyph d="M1473 0h-265l-135 145q-172 -166 -463 -165q-213 0 -340 103t-127 275q0 74 22.5 137.5t65.5 115t68 73t68 53.5q6 6 10 8l82 60l-58 61q-147 141 -147 303q0 147 108.5 240.5t280.5 93.5q164 0 268.5 -89t104.5 -232q0 -63 -18.5 -118.5t-56.5 -98.5t-58.5 -62.5 t-57.5 -48.5l-86 -66l318 -339q49 127 39 358h352v-162h-166q-10 -223 -84 -350zM641 1335q-84 0 -133 -46t-49 -118q0 -27 7 -52t15 -42.5t24.5 -38t25 -29l24.5 -24.5l16 -16l47 -51l72 55q35 29 52.5 43t44 60t26.5 95q0 74 -49 119t-123 45zM643 160q180 0 305 121 l-366 393l-86 -64q-135 -96 -136 -221q0 -106 78 -167.5t205 -61.5z" glyph-name="ampersand" horiz-adv-x="1603" unicode="&amp;"/><glyph d="M283 868h-107l-45 338v299h197v-299z" glyph-name="quotesingle" horiz-adv-x="458" unicode="'"/><glyph d="M512 -270q-369 391 -369 968q0 584 369 969l115 -84q-164 -215 -231.5 -427t-67.5 -458q0 -272 75.5 -479t223.5 -405z" glyph-name="parenleft" horiz-adv-x="653" unicode="("/><glyph d="M141 -270l-114 84q164 217 230.5 428t66.5 456q0 274 -75 482.5t-222 402.5l114 84q369 -389 369 -968.5t-369 -968.5z" glyph-name="parenright" horiz-adv-x="653" unicode=")"/><glyph d="M113 1178l45 141l211 -90l-25 229h160l-25 -229l209 90l47 -141l-227 -52l156 -174l-125 -90l-115 201l-117 -201l-123 90l156 174z" glyph-name="asterisk" horiz-adv-x="847" unicode="*"/><glyph d="M729 573v-426h-180v426h-410v168h410v410h180v-410h408v-168h-408z" glyph-name="plus" horiz-adv-x="1277" unicode="+"/><glyph d="M158 -276v81q154 6 145 195h-145v254h270v-250q0 -280 -270 -280z" glyph-name="comma" horiz-adv-x="585" unicode=","/><glyph d="M129 535v151h797v-151h-797z" glyph-name="hyphen" horiz-adv-x="1054" unicode="-"/><glyph d="M150 0v242h247v-242h-247z" glyph-name="period" horiz-adv-x="546" unicode="."/><glyph d="M0 0l627 1485h186l-627 -1485h-186z" glyph-name="slash" horiz-adv-x="839" unicode="/"/><glyph d="M639 -12q-248 0 -391.5 192.5t-143.5 567.5q0 381 146.5 569t388.5 188q248 0 391.5 -192.5t143.5 -564.5q0 -381 -145.5 -570.5t-389.5 -189.5zM637 172q319 0 319 571q0 578 -317 578t-317 -569q0 -580 315 -580z" glyph-name="zero" horiz-adv-x="1277" unicode="0"/><glyph d="M213 1069v209l344 207h191v-1485h-207v1257z" glyph-name="one" horiz-adv-x="1036" unicode="1"/><glyph d="M481 195h625v-195h-916v180l525 580q166 182 166 330q0 109 -70 171t-184 62q-127 0 -199 -79t-70 -206h-211q-2 207 131.5 337t348.5 130q211 0 339 -114.5t128 -300.5q0 -121 -57.5 -227.5t-164.5 -227.5z" glyph-name="two" horiz-adv-x="1243" unicode="2"/><glyph d="M848 774q113 -47 173 -141t60 -221q0 -197 -137 -314.5t-362 -117.5q-227 0 -357.5 128t-124.5 341h215q-6 -141 67 -215t202 -74q127 0 204.5 69.5t77.5 184.5q0 125 -82 191.5t-219 66.5h-106v186h94q141 0 213 65.5t72 174t-70 168t-184 59.5q-131 0 -199 -77 t-63 -210h-216q-8 209 123 338t355 129q205 0 338 -107.5t133 -295.5q0 -109 -54.5 -195t-152.5 -133z" glyph-name="three" horiz-adv-x="1236" unicode="3"/><glyph d="M96 295v176l568 1014h219l-561 -1008h473v516h206v-516h181v-182h-181v-295h-206v295h-699z" glyph-name="four" horiz-adv-x="1277" unicode="4"/><glyph d="M649 985q219 0 355.5 -137t136.5 -361q0 -227 -140.5 -367t-369.5 -140q-221 0 -357.5 130t-138.5 345h215q-2 -129 76 -210t205 -81q131 0 212 88t81 231q0 145 -84 233.5t-217 88.5q-90 0 -156 -40t-92 -108h-207l117 828h782v-187h-608l-58 -393q96 80 248 80z" glyph-name="five" horiz-adv-x="1277" unicode="5"/><glyph d="M692 975q205 0 340 -138.5t135 -357.5q0 -221 -141 -360t-364 -139q-270 0 -403.5 193.5t-133.5 533.5q0 375 136 586.5t419 211.5q195 0 318.5 -103.5t142.5 -277.5h-211q-14 94 -83 146.5t-173 52.5q-100 0 -171 -48t-103.5 -127t-46 -148.5t-15.5 -145.5v-61 q47 88 143 135t211 47zM662 164q129 0 208.5 87t79.5 230q0 141 -79.5 228.5t-208.5 87.5q-137 0 -214 -92.5t-77 -225.5q0 -131 78 -223t213 -92z" glyph-name="six" horiz-adv-x="1277" unicode="6"/><glyph d="M104 1485h965v-168l-596 -1317h-227l598 1300h-740v185z" glyph-name="seven" horiz-adv-x="1155" unicode="7"/><glyph d="M911 825q113 -43 178.5 -149.5t65.5 -243.5q0 -205 -142.5 -330t-375.5 -125q-236 0 -378 125t-142 330q0 137 66.5 242.5t178.5 150.5q-168 96 -167 301q0 170 119.5 274.5t322.5 104.5t321.5 -104.5t118.5 -274.5q0 -203 -166 -301zM635 1327q-102 0 -165.5 -59.5 t-63.5 -153.5q0 -96 64.5 -158.5t166.5 -62.5t166.5 62.5t64.5 158.5q0 94 -64.5 153.5t-168.5 59.5zM637 162q135 0 220 76.5t85 201.5q0 127 -85 207t-220 80t-220 -80t-85 -207q0 -125 84 -201.5t221 -76.5z" glyph-name="eight" horiz-adv-x="1277" unicode="8"/><glyph d="M612 1505q264 0 399.5 -204.5t135.5 -567.5q0 -356 -132 -554.5t-399 -198.5q-199 0 -325.5 104t-143.5 278h207q12 -96 82 -147t178 -51q317 0 318 469v67q-49 -90 -145.5 -139t-213.5 -49q-203 0 -335 138t-132 356q0 223 141.5 361t364.5 138zM614 690q135 0 212 91 t77 224.5t-76.5 224.5t-212.5 91q-129 0 -209.5 -87t-80.5 -228q0 -143 79.5 -229.5t210.5 -86.5z" glyph-name="nine" horiz-adv-x="1277" unicode="9"/><glyph d="M193 803v241h245v-241h-245zM193 0v242h245v-242h-245z" glyph-name="colon" horiz-adv-x="600" unicode=":"/><glyph d="M199 782v242h247v-242h-247zM193 -258v80q156 6 145 178h-145v242h262v-238q0 -262 -262 -262z" glyph-name="semicolon" horiz-adv-x="616" unicode=";"/><glyph d="M946 115l-807 446v160l807 422v-219l-594 -283l594 -305v-221z" glyph-name="less" horiz-adv-x="1083" unicode="&lt;"/><glyph d="M190 711v182h789v-182h-789zM190 295v182h789v-182h-789z" glyph-name="equal" horiz-adv-x="1169" unicode="="/><glyph d="M139 84v221l592 305l-592 283v219l807 -420v-166z" glyph-name="greater" horiz-adv-x="1083" unicode=">"/><glyph d="M115 1061q-2 201 126 322.5t343 121.5q211 0 340 -106.5t129 -284.5q0 -106 -46 -184t-151 -182l-44 -44t-40 -40.5t-31.5 -34t-27.5 -32.5t-20.5 -28.5t-17.5 -32t-9.5 -30t-8.5 -35.5t-2 -39v-35h-202v37q0 33 5 64.5t11 54t23.5 52.5t26.5 45.5t37 46t39 44t48 50 t51 51.5q80 78 113 136t33 126q0 106 -70 163.5t-190.5 57.5t-192.5 -70.5t-68 -193.5h-204zM436 0v236h246v-236h-246z" glyph-name="question" horiz-adv-x="1167" unicode="?"/><glyph d="M1352 1028l-39 -524q-14 -160 119 -160q111 0 178 110.5t67 293.5q0 281 -178 450.5t-471 169.5q-319 0 -514 -201.5t-195 -529.5q0 -313 183.5 -510t513.5 -197q274 0 500 109v-141q-209 -104 -502 -105q-389 0 -622.5 231.5t-233.5 614.5q0 387 238.5 626.5 t627.5 239.5q365 0 587 -209t222 -544q0 -240 -112.5 -389.5t-293.5 -149.5q-92 0 -150 40t-75 101q-37 -61 -107.5 -99t-154.5 -38q-137 0 -229.5 102.5t-92.5 290.5q0 195 98.5 318t254.5 123q78 0 141.5 -32t95.5 -81l25 90h119zM956 350q104 0 165 84t61 223 q0 125 -51.5 195t-141.5 70q-102 0 -160.5 -84t-58.5 -228q0 -127 49 -193.5t137 -66.5z" glyph-name="at" horiz-adv-x="1961" unicode="@"/><glyph d="M1044 0l-129 395h-546l-131 -395h-228l514 1485h234l522 -1485h-236zM426 573h432l-215 658z" glyph-name="A" horiz-adv-x="1292" unicode="A"/><glyph d="M1077 770q113 -41 170.5 -134t57.5 -218q0 -174 -119 -296t-346 -122h-645v1485h618q207 0 330 -110.5t123 -293.5q0 -104 -49.5 -185t-139.5 -126zM410 1300v-452h370q127 0 197 60.5t70 164.5q0 109 -72 168t-195 59h-370zM788 186q143 0 218 62.5t75 175.5 q0 123 -78.5 184.5t-214.5 61.5h-378v-484h378z" glyph-name="B" horiz-adv-x="1400" unicode="B"/><glyph d="M102 743q0 358 178.5 560t469.5 202q252 0 413.5 -140t179.5 -374h-229q-16 145 -113.5 230.5t-248.5 85.5q-207 0 -314.5 -151.5t-107.5 -412.5q0 -262 107.5 -413.5t314.5 -151.5q152 0 249 85t113 231h229q-18 -231 -182 -372.5t-411 -141.5q-291 0 -469.5 201.5 t-178.5 561.5z" glyph-name="C" horiz-adv-x="1419" unicode="C"/><glyph d="M195 0v1485h469q344 0 543.5 -199t199.5 -543t-199.5 -543.5t-543.5 -199.5h-469zM408 197h260q248 0 383 143t135 403q0 262 -136.5 404.5t-381.5 142.5h-260v-1093z" glyph-name="D" horiz-adv-x="1511" unicode="D"/><glyph d="M195 0v1485h972v-195h-757v-454h555v-185h-555v-454h757v-197h-972z" glyph-name="E" horiz-adv-x="1263" unicode="E"/><glyph d="M195 0v1485h956v-195h-741v-530h677v-189h-677v-571h-215z" glyph-name="F" horiz-adv-x="1200" unicode="F"/><glyph d="M760 -20q-303 0 -477 205.5t-174 549.5q0 360 179 565t472 205q246 0 407.5 -136t178.5 -355h-226q-20 135 -118.5 215t-241.5 80q-207 0 -314.5 -150.5t-107.5 -419.5q0 -274 110.5 -419.5t313.5 -145.5q182 0 283.5 112.5t97.5 303.5h-434v184h657v-170 q0 -285 -165 -454.5t-441 -169.5z" glyph-name="G" horiz-adv-x="1501" unicode="G"/><glyph d="M195 0v1485h215v-633h712v633h215v-1485h-215v666h-712v-666h-215z" glyph-name="H" horiz-adv-x="1531" unicode="H"/><glyph d="M410 0h-215v1485h215v-1485z" glyph-name="I" horiz-adv-x="606" unicode="I"/><glyph d="M20 457h209q0 -133 64.5 -208t193.5 -75q125 0 191.5 75t66.5 204v1032h216v-1036q0 -213 -130.5 -341t-343.5 -128q-211 0 -339 127t-128 350z" glyph-name="J" horiz-adv-x="1126" unicode="J"/><glyph d="M1315 1485l-535 -658l504 -827h-260l-389 647l-238 -291v-356h-213v1485h213v-809l645 809h273z" glyph-name="K" horiz-adv-x="1337" unicode="K"/><glyph d="M184 0v1485h213v-1286h633v-199h-846z" glyph-name="L" horiz-adv-x="1060" unicode="L"/><glyph d="M1305 1485h233v-1485h-209v463q0 442 19 622l-381 -1073h-201l-379 1073q16 -209 16 -622v-463h-208v1485h235l436 -1225z" glyph-name="M" horiz-adv-x="1734" unicode="M"/><glyph d="M1100 1485h213v-1485h-213l-692 1116v-1116h-213v1485h213l692 -1118v1118z" glyph-name="N" horiz-adv-x="1509" unicode="N"/><glyph d="M104 743q0 358 177.5 560t463.5 202q293 0 466 -206.5t173 -555.5q0 -358 -177 -560.5t-462 -202.5q-295 0 -468 206.5t-173 556.5zM332 743q0 -276 112.5 -420.5t300.5 -144.5q197 0 304.5 152.5t107.5 412.5q0 274 -112.5 419t-299.5 145q-199 0 -306 -151t-107 -413z " glyph-name="O" horiz-adv-x="1488" unicode="O"/><glyph d="M776 1485q246 0 385 -132t139 -356q0 -221 -148 -348t-388 -127l-354 2v-524h-215v1485h581zM756 715q152 0 236.5 76.5t84.5 207.5q0 135 -88 211t-233 76h-346v-571h346z" glyph-name="P" horiz-adv-x="1345" unicode="P"/><glyph d="M1397 -86l-156 -141l-235 258q-125 -51 -261 -51q-295 0 -468 206.5t-173 556.5q0 358 177.5 560t463.5 202q293 0 466 -206.5t173 -555.5q0 -387 -206 -593zM332 743q0 -276 112.5 -420.5t300.5 -144.5q197 0 304.5 152.5t107.5 412.5q0 274 -112.5 419t-299.5 145 q-199 0 -306 -151t-107 -413z" glyph-name="Q" horiz-adv-x="1492" unicode="Q"/><glyph d="M1012 596l291 -596h-236l-268 565h-389v-565h-215v1485h581q260 0 391 -133t131 -332q0 -150 -72.5 -262.5t-213.5 -161.5zM770 748q154 0 230.5 71.5t76.5 198.5q0 135 -81 203.5t-226 68.5h-360v-542h360z" glyph-name="R" horiz-adv-x="1392" unicode="R"/><glyph d="M86 457h215q0 -143 89 -217t251 -74q137 0 219 62.5t82 164.5q0 100 -54 151.5t-161 82.5l-215 57q-385 106 -385 403q0 188 136 303t368 115q229 0 370.5 -115.5t143.5 -318.5h-211q-4 115 -86 182.5t-219 67.5q-127 0 -200 -58.5t-73 -160.5q0 -84 57.5 -133t182.5 -84 l211 -58q367 -98 367 -421q0 -190 -150 -308t-387 -118q-260 0 -405.5 130t-145.5 347z" glyph-name="S" horiz-adv-x="1259" unicode="S"/><glyph d="M1100 1485v-189h-432v-1296h-213v1296h-430v189h1075z" glyph-name="T" horiz-adv-x="1124" unicode="T"/><glyph d="M166 539v946h215v-936q0 -371 362.5 -371t362.5 371v936h215v-946q0 -258 -153.5 -408.5t-424 -150.5t-424 150.5t-153.5 408.5z" glyph-name="U" horiz-adv-x="1486" unicode="U"/><glyph d="M1059 1485h235l-514 -1485h-248l-522 1485h240l405 -1237z" glyph-name="V" horiz-adv-x="1304" unicode="V"/><glyph d="M1649 1485h237l-323 -1485h-246q-254 860 -336 1184q-94 -379 -332 -1184h-248l-338 1485h236l236 -1186q104 381 337 1186h215q252 -858 340 -1190z" glyph-name="W" horiz-adv-x="1949" unicode="W"/><glyph d="M39 0l483 756l-473 729h260l359 -576l354 576h248l-475 -746l477 -739h-260l-365 582l-358 -582h-250z" glyph-name="X" horiz-adv-x="1308" unicode="X"/><glyph d="M2 1485h248l358 -699l350 699h252l-495 -916v-569h-217v569z" glyph-name="Y" horiz-adv-x="1212" unicode="Y"/><glyph d="M1090 1485v-174l-738 -1116h727v-195h-995v174l737 1118h-737v193h1006z" glyph-name="Z" horiz-adv-x="1173" unicode="Z"/><glyph d="M199 -250v1882h407v-147h-244v-1587h244v-148h-407z" glyph-name="bracketleft" horiz-adv-x="645" unicode="["/><glyph d="M819 0h-186l-627 1485h187z" glyph-name="backslash" horiz-adv-x="825" unicode="\"/><glyph d="M37 -250v148h246v1587h-246v147h407v-1882h-407z" glyph-name="bracketright" horiz-adv-x="645" unicode="]"/><glyph d="M616 963l-186 346l-188 -346h-176l290 522h150l289 -522h-179z" glyph-name="asciicircum" horiz-adv-x="860" unicode="^"/><glyph d="M0 -131v131h776v-131h-776z" glyph-name="underscore" horiz-adv-x="776" unicode="_"/><glyph d="M631 1485l-414 235l94 154l383 -287z" glyph-name="grave" horiz-adv-x="1052" unicode="`"/><glyph d="M1040 150q14 0 35 4v-154q-51 -14 -106 -14q-180 0 -191 184q-37 -88 -130 -139t-214 -51q-156 0 -249 86t-93 231q0 147 95.5 231t248.5 97l228 22q31 2 49 7t35.5 29t17.5 65q0 82 -54.5 122.5t-148.5 40.5q-106 0 -172.5 -49t-79.5 -133h-202q23 168 145.5 259 t314.5 91q207 0 307.5 -99t100.5 -273v-469q0 -88 63 -88zM772 453v53l-278 -23q-193 -18 -193 -174q0 -76 50 -117.5t134 -41.5q127 0 207 86t80 217z" glyph-name="a" horiz-adv-x="1134" unicode="a"/><glyph d="M719 1075q199 0 317.5 -150.5t118.5 -398.5q0 -252 -122 -399t-333 -147q-238 0 -323 184l-12 -164h-189v1536h207v-653q39 88 129 140t207 52zM668 156q119 0 196.5 94t77.5 278q0 180 -78 275.5t-196 95.5q-123 0 -199 -85t-86 -228v-117q10 -143 86 -228t199 -85z" glyph-name="b" horiz-adv-x="1249" unicode="b"/><glyph d="M96 526q0 258 135.5 405.5t354.5 147.5q182 0 302 -103.5t142 -273.5h-215q-14 90 -79.5 144.5t-160.5 54.5q-123 0 -194.5 -95t-71.5 -278q0 -180 72 -275t194 -95q96 0 161 55t79 143h215q-23 -170 -147.5 -273t-311.5 -103q-217 0 -346 146t-129 400z" glyph-name="c" horiz-adv-x="1110" unicode="c"/><glyph d="M535 -20q-197 0 -318 147t-121 395q0 250 125 401.5t330 151.5q223 0 319 -174v635h207v-1536h-186l-6 188q-35 -96 -132 -152t-218 -56zM588 156q123 0 198.5 86t83.5 225v123q-8 139 -83.5 224t-198.5 85q-133 0 -206 -100.5t-73 -274.5q0 -176 75 -272t204 -96z" glyph-name="d" horiz-adv-x="1253" unicode="d"/><glyph d="M575 150q94 0 157 43t85 118h205q-31 -154 -151.5 -242.5t-295.5 -88.5q-219 0 -349 144t-130 404q0 258 131 404.5t348 146.5q209 0 330 -132t121 -351q0 -74 -6 -117h-715v-4q0 -160 72.5 -242.5t197.5 -82.5zM569 909q-119 0 -186.5 -73.5t-75.5 -200.5h512v4 q0 129 -68.5 199.5t-181.5 70.5z" glyph-name="e" horiz-adv-x="1122" unicode="e"/><glyph d="M227 0v885h-176v174h176v135q0 70 14.5 128t48.5 112.5t99.5 86t155.5 31.5q84 0 145 -16v-168q-49 6 -92 6q-57 0 -93 -17.5t-50.5 -53t-17.5 -62.5t-3 -74v-108h256v-174h-256v-885h-207z" glyph-name="f" horiz-adv-x="688" unicode="f"/><glyph d="M727 190q174 0 262 -77.5t88 -202.5q0 -162 -137 -251t-385 -89q-223 0 -345 77t-122 210q0 147 137 204q-86 47 -86 156q0 70 41 122t107 71q-158 100 -158 292q0 166 121 271.5t315 105.5q143 0 234 -61q23 68 79 101.5t123 33.5q33 0 64 -6v-180q-23 6 -47 6 q-90 0 -141 -35q96 -90 96 -238q0 -162 -117 -261t-303 -99q-70 0 -135 16q-45 0 -70.5 -22.5t-25.5 -61.5q0 -82 120 -82h285zM557 922q-102 0 -163.5 -58.5t-61.5 -156.5q0 -94 59.5 -151.5t159.5 -57.5t159.5 58t59.5 157q0 96 -57.5 152.5t-155.5 56.5zM563 -262 q309 0 309 160q0 43 -18 68.5t-56 35.5t-67 13t-74 3h-249q-72 0 -105 -36.5t-33 -87.5q0 -156 293 -156z" glyph-name="g" horiz-adv-x="1126" unicode="g"/><glyph d="M176 0v1536h207v-651q43 88 136 141t206 53q176 0 271.5 -107.5t95.5 -293.5v-678h-207v637q0 264 -221 264q-137 0 -209 -87t-72 -220v-594h-207z" glyph-name="h" horiz-adv-x="1251" unicode="h"/><glyph d="M170 1296v207h258v-207h-258zM197 0v1059h206v-1059h-206z" glyph-name="i" horiz-adv-x="587" unicode="i"/><glyph d="M201 1296v207h254v-207h-254zM424 -57q0 -358 -344 -359q-88 0 -154 19v176q37 -12 111 -12q102 -2 141 48t39 134v1110h207v-1116z" glyph-name="j" horiz-adv-x="614" unicode="j"/><glyph d="M1079 1059l-381 -379l369 -680h-233l-281 535l-191 -189v-346h-204v1536h204v-938l457 461h260z" glyph-name="k" horiz-adv-x="1089" unicode="k"/><glyph d="M172 0v1536h209v-1536h-209z" glyph-name="l" horiz-adv-x="552" unicode="l"/><glyph d="M1309 1079q162 0 256 -102.5t94 -280.5v-696h-207v657q0 244 -197 244q-115 0 -176 -78t-61 -215v-608h-205v649q0 252 -201 252q-111 0 -172 -76.5t-61 -206.5v-618h-207v1059h182l19 -152q41 82 120.5 127t180.5 45q111 0 192.5 -59t108.5 -156q41 100 130 157.5 t204 57.5z" glyph-name="m" horiz-adv-x="1818" unicode="m"/><glyph d="M172 0v1059h186l21 -174q41 86 136 140t206 54q178 0 272 -105.5t94 -303.5v-670h-206v639q0 262 -222 262q-139 0 -209.5 -90t-70.5 -219v-592h-207z" glyph-name="n" horiz-adv-x="1247" unicode="n"/><glyph d="M96 526q0 248 132 400.5t351.5 152.5t350.5 -152.5t131 -400.5q0 -250 -134 -398t-347 -148q-215 0 -349.5 147t-134.5 399zM307 528q0 -178 75 -274t196 -96q123 0 196.5 98t73.5 274.5t-73 273.5t-195 97q-125 0 -199 -98.5t-74 -274.5z" glyph-name="o" horiz-adv-x="1157" unicode="o"/><glyph d="M705 1079q207 0 328.5 -150.5t121.5 -408.5q0 -244 -121 -392t-321 -148q-113 0 -201 48t-129 130v-568h-207v1469h189l12 -168q41 86 129 137t199 51zM668 156q119 0 196.5 93t77.5 271q0 188 -78 284.5t-196 96.5q-123 0 -199 -85t-86 -228v-119q10 -143 86 -228 t199 -85z" glyph-name="p" horiz-adv-x="1249" unicode="p"/><glyph d="M543 1081q121 0 212 -55t132 -149v184h186v-1471h-205v590q-37 -92 -128 -145t-208 -53q-201 0 -319.5 147t-118.5 395q0 250 121 403.5t328 153.5zM588 905q-121 0 -200 -96t-79 -280.5t78 -277.5t197 -93q121 0 197.5 86t86.5 229v117q-10 143 -85.5 229t-194.5 86z " glyph-name="q" horiz-adv-x="1249" unicode="q"/><glyph d="M635 1067q45 0 80 -8v-182q-27 4 -66 4q-266 0 -266 -303v-578h-207v1059h180l23 -148q27 74 97.5 115t158.5 41z" glyph-name="r" horiz-adv-x="753" unicode="r"/><glyph d="M297 313q2 -82 60.5 -127t158.5 -45q94 0 148.5 40t54.5 108q0 35 -13.5 60.5t-41 41t-41 20.5t-41.5 13l-183 51q-287 76 -286 293q0 139 106.5 225t280.5 86q176 0 285.5 -87t109.5 -232h-205q-2 74 -54 114.5t-136 40.5q-86 0 -133.5 -36.5t-47.5 -100.5 q0 -59 40 -85.5t126 -49.5l191 -49q252 -68 252 -291q0 -147 -114 -235t-300 -88q-188 0 -304 91t-120 242h207z" glyph-name="s" horiz-adv-x="1017" unicode="s"/><glyph d="M567 -18q-311 0 -311 337v566h-219v174h90q74 0 101.5 30.5t27.5 96.5v168h205v-295h254v-174h-254v-535q0 -104 37 -148t123 -44q37 0 94 8v-166q-89 -18 -148 -18z" glyph-name="t" horiz-adv-x="774" unicode="t"/><glyph d="M852 1059h207v-1059h-187l-16 176q-37 -90 -128 -143t-210 -53q-168 0 -264 106.5t-96 284.5v688h207v-635q0 -268 223 -268q133 0 198.5 89t65.5 236v578z" glyph-name="u" horiz-adv-x="1222" unicode="u"/><glyph d="M815 1059h229l-389 -1059h-247l-392 1059h230q266 -788 286 -856q33 113 283 856z" glyph-name="v" horiz-adv-x="1060" unicode="v"/><glyph d="M1378 1059h213l-309 -1059h-246q-141 494 -205 782q-57 -270 -196 -782h-256l-311 1059h221q61 -236 225 -858q10 47 32.5 140t74 296t104.5 422h213q59 -238 110.5 -435.5t74 -285.5t32.5 -131q57 254 223 852z" glyph-name="w" horiz-adv-x="1658" unicode="w"/><glyph d="M29 0l344 539l-342 520h231l252 -393l242 393h225l-340 -520l348 -539h-233l-252 401l-252 -401h-223z" glyph-name="x" horiz-adv-x="1017" unicode="x"/><glyph d="M834 1059h208l-469 -1198q-25 -63 -47 -103.5t-61 -86.5t-97.5 -67.5t-136.5 -21.5q-98 0 -159 29v166q238 -72 303 100l51 133l-408 1049h211l301 -826q131 381 207 574z" glyph-name="y" horiz-adv-x="1060" unicode="y"/><glyph d="M350 172h586v-172h-834v154l576 731h-576v174h826v-158z" glyph-name="z" horiz-adv-x="1028" unicode="z"/><glyph d="M602 -276q-324 0 -323 350v301q0 74 -15.5 121t-47.5 67.5t-51.5 26.5t-58.5 12v158q33 6 53.5 13t53.5 28.5t49.5 70t16.5 117.5v299q0 174 72.5 261t250.5 87h68v-145h-58q-96 0 -132 -46t-36 -153v-362q0 -100 -48 -164t-128 -76v-4q74 -18 125 -82.5t51 -157.5v-362 q0 -100 37 -155.5t133 -55.5h58v-149h-70z" glyph-name="braceleft" horiz-adv-x="702" unicode="{"/><glyph d="M213 -78v1614h184v-1614h-184z" glyph-name="bar" horiz-adv-x="606" unicode="|"/><glyph d="M31 -276v149h57q170 0 170 211v362q0 92 50 157t124 83v4q-78 12 -126 75.5t-48 164.5v362q0 104 -37 151.5t-131 47.5h-57v145h65q180 0 252 -86t72 -262v-299q0 -70 17.5 -118t50 -69.5t53 -28.5t53.5 -13v-158q-39 -6 -58.5 -12t-52 -26.5t-48 -67.5t-15.5 -121v-301 q0 -170 -75 -260t-249 -90h-67z" glyph-name="braceright" horiz-adv-x="702" unicode="}"/><glyph d="M143 473q-6 135 52.5 192.5t140.5 57.5q66 0 182.5 -50t165.5 -50q96 0 96 104h119q6 -135 -56.5 -194.5t-152.5 -59.5q-76 0 -194.5 50t-157.5 50q-41 0 -60.5 -28.5t-15.5 -71.5h-119z" glyph-name="asciitilde" horiz-adv-x="1042" unicode="~"/><glyph glyph-name="uni00A0" horiz-adv-x="460" unicode=" "/><glyph d="M211 1485h233v-211h-233v211zM264 1067h127l39 -627v-440h-207v440z" glyph-name="exclamdown" horiz-adv-x="655" unicode="¡"/><glyph d="M516 0v233q-193 31 -291 165t-98 339q0 223 104.5 354.5t284.5 159.5v234h139v-230q164 -14 265.5 -110t119.5 -248h-202q-29 150 -183 180v-667q156 31 183 178h202q-18 -156 -122.5 -250t-262.5 -109v-229h-139zM516 416v651q-180 -55 -180 -324q0 -270 180 -327z" glyph-name="cent" horiz-adv-x="1169" unicode="¢"/><glyph d="M498 184h630v-184h-1007v190q131 0 213 64.5t82 181.5q0 100 -54 219h-221v154h150q-74 160 -74 281q0 197 136 306t382 109q160 0 326 -61v-184q-166 66 -332 65q-139 0 -222 -59.5t-83 -182.5q0 -16 1 -30.5t5 -31.5t6 -28.5t8.5 -32t9.5 -27.5t12 -30.5t11 -29 t14.5 -33t14.5 -31.5h414v-154h-353q53 -129 38 -264t-107 -207z" glyph-name="sterling" horiz-adv-x="1202" unicode="£"/><glyph d="M61 285l154 131q-92 121 -91 268t91 264l-152 131l117 117l133 -152q115 82 263.5 82t263.5 -82l133 154l119 -119l-150 -129q94 -121 94 -267t-92 -267l150 -131l-119 -115l-133 152q-119 -84 -263.5 -85t-263.5 85l-133 -152zM303 684q-2 -125 76 -201.5t199 -76.5 q119 2 196.5 79.5t77.5 198.5t-78 196.5t-199 75.5q-119 0 -195.5 -74.5t-76.5 -197.5z" glyph-name="currency" horiz-adv-x="1155" unicode="¤"/><glyph d="M27 1485h241l332 -654l326 654h243l-387 -733h312v-170h-385v-144h385v-170h-385v-268h-217v268h-390v170h390v144h-390v170h316z" glyph-name="yen" horiz-adv-x="1200" unicode="¥"/><glyph d="M213 893v643h184v-643h-184zM213 -80v637h184v-637h-184z" glyph-name="brokenbar" horiz-adv-x="606" unicode="¦"/><glyph d="M815 393q135 -76 135 -237q0 -147 -112.5 -234.5t-299 -87.5t-302 89t-125.5 239h202q29 -164 226 -164q90 0 144 38t54 101q0 55 -33.5 85t-107.5 48l-170 45q-283 74 -283 297q0 76 39 141.5t107 102.5q-145 78 -146 240q0 141 106.5 226t278.5 85q174 0 283 -86 t115 -229h-203q-6 72 -57.5 111.5t-137.5 39.5q-84 0 -128 -34.5t-44 -94t40 -87.5t122 -48l146 -37q287 -70 286 -309q0 -160 -135 -240zM565 487q84 0 129 37t45 99q0 70 -56 104.5t-144 34.5q-94 0 -138.5 -37t-44.5 -92q0 -72 58.5 -109t150.5 -37z" glyph-name="section" horiz-adv-x="1064" unicode="§"/><glyph d="M150 1546v205h237v-205h-237zM567 1546v205h236v-205h-236z" glyph-name="dieresis" horiz-adv-x="952" unicode="¨"/><glyph d="M1667 743.5q0 -337.5 -222 -550.5t-560 -213t-561.5 210.5t-223.5 550.5q0 338 224.5 551t562.5 213q336 0 558 -212t222 -549.5zM1534 743.5q0 284.5 -184.5 461.5t-465 177t-464.5 -178t-184 -462.5t184 -462t464.5 -177.5t465 178.5t184.5 463zM1253 623 q-16 -129 -115.5 -210t-240.5 -81q-168 0 -276.5 117.5t-108.5 291.5q0 168 102.5 289t282.5 121q143 0 241.5 -82t114.5 -209h-153q-14 82 -70.5 124t-130.5 42q-111 0 -173 -84t-62 -205t62 -199.5t171 -78.5q78 0 134 42t69 122h153z" glyph-name="copyright" horiz-adv-x="1767" unicode="©"/><glyph d="M141 549l250 420h184l-231 -420l231 -420h-184zM551 549l250 420h184l-229 -420l229 -420h-184z" glyph-name="guillemotleft" horiz-adv-x="1081" unicode="«"/><glyph d="M899 301v334h-807v178h993v-512h-186z" glyph-name="logicalnot" horiz-adv-x="1181" unicode="¬"/><glyph d="M522 565q-205 0 -341 131t-136 334q0 205 136 335t341 130q207 0 343 -130t136 -335q0 -203 -136 -334t-343 -131zM526.5 672q159.5 0 260 99t100.5 259q0 166 -103.5 264.5t-261.5 98.5q-160 0 -262 -100.5t-102 -264.5t104.5 -260t264 -96zM352 795v473h209 q70 0 116 -42t46 -112q0 -102 -92 -141l92 -178h-109l-79 166h-86v-166h-97zM446 1032h97q37 0 59.5 21.5t22.5 56.5t-22.5 54.5t-59.5 19.5h-97v-152z" glyph-name="registered" horiz-adv-x="1046" unicode="®"/><glyph d="M137 1561v147h604v-147h-604z" glyph-name="macron" horiz-adv-x="960" unicode="¯"/><glyph d="M696 1196q0 -133 -92 -218t-225 -85q-129 0 -218 87t-89 216t83 215t224 86q139 0 228 -86t89 -215zM547 1196q0 72 -48 118t-118 46q-66 0 -113 -46t-47 -118q0 -68 47 -115t113 -47q68 0 117 47t49 115z" glyph-name="degree" horiz-adv-x="768" unicode="°"/><glyph d="M711 682v-344h-203v344h-420v180h420v346h203v-346h422v-180h-422zM88 0v188h1045v-188h-1045z" glyph-name="plusminus" horiz-adv-x="1218" unicode="±"/><glyph d="M348 678h414v-158h-662v146l373 401q102 115 102 205q0 70 -44 111.5t-119 41.5q-78 0 -123 -51t-43 -133h-178q0 147 95 240.5t249 93.5q156 0 250 -83t94 -218q0 -141 -150 -309z" glyph-name="uni00B2" horiz-adv-x="835" unicode="²"/><glyph d="M604 1065q158 -66 158 -254q0 -137 -100.5 -221t-258.5 -84q-162 0 -255 90t-91 238h181q-2 -82 43 -129.5t125 -47.5q78 0 127 44t49 116q0 78 -51.5 121t-137.5 43h-82v147h68q88 0 135 43t47 111q0 66 -44 104.5t-114 38.5q-78 0 -122.5 -47t-42.5 -131h-179 q-2 147 93.5 237.5t250.5 90.5q147 0 242.5 -77t95.5 -206q0 -157 -137 -227z" glyph-name="uni00B3" horiz-adv-x="825" unicode="³"/><glyph d="M459 1485l-66 102l383 287l94 -154z" glyph-name="acute" horiz-adv-x="933" unicode="´"/><glyph d="M981 1333v-1503h-164v1503h-192v-1503h-166v897q-170 0 -273.5 104.5t-103.5 274.5t103.5 274.5t273.5 104.5h671v-152h-149z" glyph-name="paragraph" horiz-adv-x="1251" unicode="¶"/><glyph d="M184 559q0 72 48.5 121t118 49t119.5 -49t50 -121q0 -68 -50 -116t-119.5 -48t-118 48t-48.5 116z" glyph-name="periodcentered" horiz-adv-x="663" unicode="·"/><glyph d="M244 -86q70 10 131 -28t61 -115q0 -86 -65.5 -131.5t-147.5 -42t-141 42.5v104q55 -51 139 -43t84 76q0 43 -48 62.5t-130 -3.5v58l104 167h66v-53z" glyph-name="cedilla" horiz-adv-x="518" unicode="¸"/><glyph d="M70 1245v172l241 144h162v-1041h-174v854z" glyph-name="uni00B9" horiz-adv-x="612" unicode="¹"/><glyph d="M532 549l-251 -420h-183l230 420l-230 420h183zM942 549l-250 -420h-184l229 420l-229 420h184z" glyph-name="guillemotright" horiz-adv-x="1081" unicode="»"/><glyph d="M496 0l788 1536h195l-791 -1536h-192zM143 1190v162l224 133h151v-965h-162v793zM1133 182v137l352 646h174l-348 -639h268v311h162v-311h112v-144h-112v-182h-162v182h-446z" glyph-name="onequarter" horiz-adv-x="1908" unicode="¼"/><glyph d="M1284 1536h195l-791 -1536h-192zM518 520h-162v793l-213 -123v162l224 133h151v-965zM1538 145h385v-145h-612v133l344 375q96 104 96 188q0 68 -41 105t-111 37q-74 0 -114.5 -46.5t-40.5 -121.5h-164q-2 137 87 223t232.5 86t230.5 -77t87 -202q0 -135 -137 -286z" glyph-name="onehalf" horiz-adv-x="1994" unicode="½"/><glyph d="M1407 1536h195l-791 -1536h-193zM743 788q0 -127 -92 -204.5t-241.5 -77.5t-237.5 84t-84 221h166q-2 -78 42 -122t116 -44q74 0 118.5 42t44.5 108q0 72 -48 110.5t-126 38.5h-75v143h61q82 0 124 38t42 102q0 61 -40 97t-105 36q-76 0 -115 -45t-37 -119h-166 q-4 137 84 220t236 83q139 0 227 -70.5t88 -191.5q0 -147 -135 -213q153 -60 153 -236zM1864 326h112v-144h-112v-182h-162v182h-447v137l353 646h174l-348 -639h268v311h162v-311z" glyph-name="threequarters" horiz-adv-x="2031" unicode="¾"/><glyph d="M729 1317v-242h-246v242h246zM1053 219q2 -203 -126 -320.5t-347 -117.5q-209 0 -337 108.5t-128 286.5q0 111 47 190.5t149 186.5q137 139 164 180q37 59 37 144v36h203v-39q0 -53 -13.5 -101t-24.5 -76.5t-56.5 -81t-61.5 -71t-86 -87.5q-80 -80 -112.5 -139.5 t-32.5 -131.5q0 -106 69.5 -164.5t186.5 -58.5q133 0 200.5 67.5t63.5 188.5h205z" glyph-name="questiondown" horiz-adv-x="1167" unicode="¿"/><glyph d="M707 1704l-64 -102l-414 235l95 154zM1044 0l-129 395h-546l-131 -395h-228l514 1485h234l522 -1485h-236zM426 573h432l-215 658z" glyph-name="Agrave" horiz-adv-x="1292" unicode="À"/><glyph d="M1051 1837l-412 -235l-66 102l383 287zM1044 0l-129 395h-546l-131 -395h-228l514 1485h234l522 -1485h-236zM426 573h432l-215 658z" glyph-name="Aacute" horiz-adv-x="1292" unicode="Á"/><glyph d="M643 1831l-221 -229l-100 96l256 262h133l254 -260l-103 -98zM1044 0l-129 395h-546l-131 -395h-228l514 1485h234l522 -1485h-236zM426 573h432l-215 658z" glyph-name="Acircumflex" horiz-adv-x="1292" unicode="Â"/><glyph d="M500 1688q-59 -4 -109 -68l-88 61q78 156 203 160q57 4 143 -37t129 -39q61 0 111 70l90 -63q-78 -160 -201 -162q-57 -4 -145 38t-133 40zM1044 0l-129 395h-546l-131 -395h-228l514 1485h234l522 -1485h-236zM426 573h432l-215 658z" glyph-name="Atilde" horiz-adv-x="1292" unicode="Ã"/><glyph d="M551 1868v-205h-238v205h238zM967 1868v-205h-236v205h236zM1044 0l-129 395h-546l-131 -395h-228l514 1485h234l522 -1485h-236zM426 573h432l-215 658z" glyph-name="Adieresis" horiz-adv-x="1292" unicode="Ä"/><glyph d="M1044 0l-129 395h-546l-131 -395h-228l506 1464q-113 66 -113 201q0 100 66 166.5t172 66.5q104 0 170 -66.5t66 -166.5q0 -133 -113 -201l516 -1464h-236zM641 1790q-55 0 -90 -36t-35 -89q0 -51 36 -88t89 -37t88 37t35 88q0 53 -35 89t-88 36zM426 573h432l-215 658z " glyph-name="Aring" horiz-adv-x="1292" unicode="Å"/><glyph d="M1831 1290h-758v-454h555v-185h-555v-454h758v-197h-971v395h-493l-129 -395h-228l514 1485h1307v-195zM860 1290h-198l-236 -717h434v717z" glyph-name="AE" horiz-adv-x="1927" unicode="Æ"/><glyph d="M752 178q152 0 249 85t113 231h229q-18 -221 -169.5 -361.5t-385.5 -152.5l-32 -58q70 10 131 -27.5t61 -115.5q0 -86 -65.5 -131t-147.5 -42t-141 42v104q55 -51 139 -43t84 76q0 43 -48 62.5t-130 -3.5v58l49 80q-266 23 -426 222t-160 539q0 358 178.5 560t469.5 202 q252 0 413.5 -140t179.5 -374h-229q-16 145 -113.5 230.5t-248.5 85.5q-207 0 -314.5 -151.5t-107.5 -412.5q0 -262 107.5 -413.5t314.5 -151.5z" glyph-name="Ccedilla" horiz-adv-x="1419" unicode="Ç"/><glyph d="M635 1602l-414 235l94 154l383 -287zM195 0v1485h972v-195h-757v-454h555v-185h-555v-454h757v-197h-972z" glyph-name="Egrave" horiz-adv-x="1263" unicode="È"/><glyph d="M631 1602l-66 102l383 287l94 -154zM195 0v1485h972v-195h-757v-454h555v-185h-555v-454h757v-197h-972z" glyph-name="Eacute" horiz-adv-x="1263" unicode="É"/><glyph d="M313 1698l256 262h133l254 -260l-102 -98l-219 229l-221 -229zM195 0v1485h972v-195h-757v-454h555v-185h-555v-454h757v-197h-972z" glyph-name="Ecircumflex" horiz-adv-x="1263" unicode="Ê"/><glyph d="M305 1663v205h238v-205h-238zM723 1663v205h235v-205h-235zM195 0v1485h972v-195h-757v-454h555v-185h-555v-454h757v-197h-972z" glyph-name="Edieresis" horiz-adv-x="1263" unicode="Ë"/><glyph d="M305 1602l-414 235l95 154l383 -287zM410 0h-215v1485h215v-1485z" glyph-name="Igrave" horiz-adv-x="606" unicode="Ì"/><glyph d="M301 1602l-65 102l382 287l95 -154zM410 0h-215v1485h215v-1485z" glyph-name="Iacute" horiz-adv-x="606" unicode="Í"/><glyph d="M-16 1698l256 262h133l254 -260l-103 -98l-219 229l-221 -229zM410 0h-215v1485h215v-1485z" glyph-name="Icircumflex" horiz-adv-x="606" unicode="Î"/><glyph d="M-25 1663v205h238v-205h-238zM393 1663v205h236v-205h-236zM410 0h-215v1485h215v-1485z" glyph-name="Idieresis" horiz-adv-x="606" unicode="Ï"/><glyph d="M664 1485q344 0 543.5 -199t199.5 -543t-199.5 -543.5t-543.5 -199.5h-469v657h-181v179h181v649h469zM668 197q248 0 383 143t135 403q0 262 -136.5 404.5t-381.5 142.5h-260v-454h278v-179h-278v-460h260z" glyph-name="Eth" horiz-adv-x="1511" unicode="Ð"/><glyph d="M612 1688q-59 -4 -108 -68l-88 61q78 156 202 160q57 4 143.5 -37t129.5 -39q61 0 110 70l91 -63q-78 -160 -201 -162q-57 -4 -145.5 38t-133.5 40zM1100 1485h213v-1485h-213l-692 1116v-1116h-213v1485h213l692 -1118v1118z" glyph-name="Ntilde" horiz-adv-x="1509" unicode="Ñ"/><glyph d="M748 1602l-414 235l94 154l383 -287zM104 743q0 358 177.5 560t463.5 202q293 0 466 -206.5t173 -555.5q0 -358 -177 -560.5t-462 -202.5q-295 0 -468 206.5t-173 556.5zM332 743q0 -276 112.5 -420.5t300.5 -144.5q197 0 304.5 152.5t107.5 412.5q0 274 -112.5 419 t-299.5 145q-199 0 -306 -151t-107 -413z" glyph-name="Ograve" horiz-adv-x="1488" unicode="Ò"/><glyph d="M743 1602l-65 102l383 287l94 -154zM104 743q0 358 177.5 560t463.5 202q293 0 466 -206.5t173 -555.5q0 -358 -177 -560.5t-462 -202.5q-295 0 -468 206.5t-173 556.5zM332 743q0 -276 112.5 -420.5t300.5 -144.5q197 0 304.5 152.5t107.5 412.5q0 274 -112.5 419 t-299.5 145q-199 0 -306 -151t-107 -413z" glyph-name="Oacute" horiz-adv-x="1488" unicode="Ó"/><glyph d="M426 1698l256 262h133l254 -260l-102 -98l-219 229l-222 -229zM104 743q0 358 177.5 560t463.5 202q293 0 466 -206.5t173 -555.5q0 -358 -177 -560.5t-462 -202.5q-295 0 -468 206.5t-173 556.5zM332 743q0 -276 112.5 -420.5t300.5 -144.5q197 0 304.5 152.5 t107.5 412.5q0 274 -112.5 419t-299.5 145q-199 0 -306 -151t-107 -413z" glyph-name="Ocircumflex" horiz-adv-x="1488" unicode="Ô"/><glyph d="M883 1610q-57 -4 -145.5 38t-133.5 40q-59 -4 -108 -68l-88 61q78 156 202 160q57 4 143.5 -37t129.5 -39q61 0 110 70l90 -63q-77 -160 -200 -162zM104 743q0 358 177.5 560t463.5 202q293 0 466 -206.5t173 -555.5q0 -358 -177 -560.5t-462 -202.5q-295 0 -468 206.5 t-173 556.5zM332 743q0 -276 112.5 -420.5t300.5 -144.5q197 0 304.5 152.5t107.5 412.5q0 274 -112.5 419t-299.5 145q-199 0 -306 -151t-107 -413z" glyph-name="Otilde" horiz-adv-x="1488" unicode="Õ"/><glyph d="M418 1663v205h237v-205h-237zM836 1663v205h235v-205h-235zM104 743q0 358 177.5 560t463.5 202q293 0 466 -206.5t173 -555.5q0 -358 -177 -560.5t-462 -202.5q-295 0 -468 206.5t-173 556.5zM332 743q0 -276 112.5 -420.5t300.5 -144.5q197 0 304.5 152.5t107.5 412.5 q0 274 -112.5 419t-299.5 145q-199 0 -306 -151t-107 -413z" glyph-name="Odieresis" horiz-adv-x="1488" unicode="Ö"/><glyph d="M258 41l-131 131l436 436l-436 436l131 132l436 -437l439 437l131 -132l-439 -436l439 -436l-131 -131l-439 436z" glyph-name="multiply" horiz-adv-x="1390" unicode="×"/><glyph d="M745 1505q293 0 466 -206.5t173 -555.5q0 -358 -177 -560.5t-462 -202.5q-295 0 -468 206.5t-173 556.5q0 358 177 560t464 202zM745 1307q-199 0 -306 -150.5t-107 -413.5q0 -252 96 -399l510 913q-87 50 -193 50zM745 178q197 0 304.5 152.5t107.5 412.5q0 250 -98 398 l-508 -914q85 -49 194 -49z" glyph-name="Oslash" horiz-adv-x="1488" unicode="Ø"/><glyph d="M745 1602l-413 235l94 154l383 -287zM166 539v946h215v-936q0 -371 362.5 -371t362.5 371v936h215v-946q0 -258 -153.5 -408.5t-424 -150.5t-424 150.5t-153.5 408.5z" glyph-name="Ugrave" horiz-adv-x="1486" unicode="Ù"/><glyph d="M741 1602l-65 102l383 287l94 -154zM166 539v946h215v-936q0 -371 362.5 -371t362.5 371v936h215v-946q0 -258 -153.5 -408.5t-424 -150.5t-424 150.5t-153.5 408.5z" glyph-name="Uacute" horiz-adv-x="1486" unicode="Ú"/><glyph d="M424 1698l256 262h133l254 -260l-102 -98l-220 229l-221 -229zM166 539v946h215v-936q0 -371 362.5 -371t362.5 371v936h215v-946q0 -258 -153.5 -408.5t-424 -150.5t-424 150.5t-153.5 408.5z" glyph-name="Ucircumflex" horiz-adv-x="1486" unicode="Û"/><glyph d="M416 1663v205h237v-205h-237zM834 1663v205h235v-205h-235zM166 539v946h215v-936q0 -371 362.5 -371t362.5 371v936h215v-946q0 -258 -153.5 -408.5t-424 -150.5t-424 150.5t-153.5 408.5z" glyph-name="Udieresis" horiz-adv-x="1486" unicode="Ü"/><glyph d="M604 1602l-65 102l383 287l94 -154zM2 1485h248l358 -699l350 699h252l-495 -916v-569h-217v569z" glyph-name="Yacute" horiz-adv-x="1212" unicode="Ý"/><glyph d="M776 1245q246 0 385 -132t139 -355q0 -221 -148 -348t-388 -125h-354v-285h-215v1536h215v-291h366zM756 475q152 0 236.5 78t84.5 207q0 135 -88 212t-233 77h-346v-574h346z" glyph-name="Thorn" horiz-adv-x="1345" unicode="Þ"/><glyph d="M1149 442q0 -203 -134 -330.5t-345 -127.5q-82 0 -160 18v191q57 -12 125 -13q137 0 217 78t80 209q0 137 -86 213t-223 76h-56v184h56q98 0 152 58.5t54 152.5q0 100 -60 157.5t-159 57.5q-113 0 -171 -72.5t-58 -191.5v-1102h-209v1090q2 217 124 341.5t320 124.5 q188 0 309.5 -105t121.5 -273q0 -109 -51.5 -200t-143.5 -120q139 -33 218 -147.5t79 -268.5z" glyph-name="germandbls" horiz-adv-x="1243" unicode="ß"/><glyph d="M635 1278l-64 -102l-413 235l94 154zM1040 150q14 0 35 4v-154q-51 -14 -106 -14q-180 0 -191 184q-37 -88 -130 -139t-214 -51q-156 0 -249 86t-93 231q0 147 95.5 231t248.5 97l228 22q31 2 49 7t35.5 29t17.5 65q0 82 -54.5 122.5t-148.5 40.5q-106 0 -172.5 -49 t-79.5 -133h-202q23 168 145.5 259t314.5 91q207 0 307.5 -99t100.5 -273v-469q0 -88 63 -88zM772 453v53l-278 -23q-193 -18 -193 -174q0 -76 50 -117.5t134 -41.5q127 0 207 86t80 217z" glyph-name="agrave" horiz-adv-x="1134" unicode="à"/><glyph d="M979 1411l-412 -235l-65 102l383 287zM1040 150q14 0 35 4v-154q-51 -14 -106 -14q-180 0 -191 184q-37 -88 -130 -139t-214 -51q-156 0 -249 86t-93 231q0 147 95.5 231t248.5 97l228 22q31 2 49 7t35.5 29t17.5 65q0 82 -54.5 122.5t-148.5 40.5q-106 0 -172.5 -49 t-79.5 -133h-202q23 168 145.5 259t314.5 91q207 0 307.5 -99t100.5 -273v-469q0 -88 63 -88zM772 453v53l-278 -23q-193 -18 -193 -174q0 -76 50 -117.5t134 -41.5q127 0 207 86t80 217z" glyph-name="aacute" horiz-adv-x="1134" unicode="á"/><glyph d="M571 1405l-221 -229l-100 96l256 262h133l254 -260l-102 -98zM1040 150q14 0 35 4v-154q-51 -14 -106 -14q-180 0 -191 184q-37 -88 -130 -139t-214 -51q-156 0 -249 86t-93 231q0 147 95.5 231t248.5 97l228 22q31 2 49 7t35.5 29t17.5 65q0 82 -54.5 122.5t-148.5 40.5 q-106 0 -172.5 -49t-79.5 -133h-202q23 168 145.5 259t314.5 91q207 0 307.5 -99t100.5 -273v-469q0 -88 63 -88zM772 453v53l-278 -23q-193 -18 -193 -174q0 -76 50 -117.5t134 -41.5q127 0 207 86t80 217z" glyph-name="acircumflex" horiz-adv-x="1134" unicode="â"/><glyph d="M428 1262q-59 -4 -109 -68l-88 61q78 156 203 160q57 4 143.5 -37t129.5 -39q61 0 110 70l90 -63q-78 -160 -200 -162q-57 -4 -145.5 38t-133.5 40zM1040 150q14 0 35 4v-154q-51 -14 -106 -14q-180 0 -191 184q-37 -88 -130 -139t-214 -51q-156 0 -249 86t-93 231 q0 147 95.5 231t248.5 97l228 22q31 2 49 7t35.5 29t17.5 65q0 82 -54.5 122.5t-148.5 40.5q-106 0 -172.5 -49t-79.5 -133h-202q23 168 145.5 259t314.5 91q207 0 307.5 -99t100.5 -273v-469q0 -88 63 -88zM772 453v53l-278 -23q-193 -18 -193 -174q0 -76 50 -117.5 t134 -41.5q127 0 207 86t80 217z" glyph-name="atilde" horiz-adv-x="1134" unicode="ã"/><glyph d="M479 1442v-205h-237v205h237zM895 1442v-205h-236v205h236zM1040 150q14 0 35 4v-154q-51 -14 -106 -14q-180 0 -191 184q-37 -88 -130 -139t-214 -51q-156 0 -249 86t-93 231q0 147 95.5 231t248.5 97l228 22q31 2 49 7t35.5 29t17.5 65q0 82 -54.5 122.5t-148.5 40.5 q-106 0 -172.5 -49t-79.5 -133h-202q23 168 145.5 259t314.5 91q207 0 307.5 -99t100.5 -273v-469q0 -88 63 -88zM772 453v53l-278 -23q-193 -18 -193 -174q0 -76 50 -117.5t134 -41.5q127 0 207 86t80 217z" glyph-name="adieresis" horiz-adv-x="1134" unicode="ä"/><glyph d="M1040 150q14 0 35 4v-154q-51 -14 -106 -14q-180 0 -191 184q-37 -88 -130 -139t-214 -51q-156 0 -249 86t-93 231q0 147 95.5 231t248.5 97l228 22q31 2 49 7t35.5 29t17.5 65q0 82 -54.5 122.5t-148.5 40.5q-106 0 -172.5 -49t-79.5 -133h-202q37 264 303 332 q-80 70 -80 178q0 100 65.5 167t171.5 67q104 0 170 -67t66 -167q0 -109 -80 -178q252 -63 252 -354v-469q0 -88 63 -88zM569 1364q-55 0 -90 -36t-35 -89q0 -51 36 -88t89.5 -37t88 37t34.5 88q0 53 -35 89t-88 36zM772 453v53l-278 -23q-193 -18 -193 -174 q0 -76 50 -117.5t134 -41.5q127 0 207 86t80 217z" glyph-name="aring" horiz-adv-x="1134" unicode="å"/><glyph d="M1272 150q94 0 156.5 43t84.5 118h207q-33 -156 -154.5 -243.5t-293.5 -87.5q-283 0 -408 233q-49 -109 -153.5 -171t-245.5 -62q-166 0 -267.5 88t-101.5 233q0 150 107.5 242t302.5 92h170q96 0 96 86v24q0 78 -56.5 122t-150.5 44q-102 0 -167.5 -49t-80.5 -133h-202 q23 164 145.5 257t308.5 93q242 0 349 -155q131 156 356 155q209 0 330.5 -131t121.5 -352q0 -59 -8 -117h-714q2 -164 72.5 -246.5t195.5 -82.5zM1268 909q-119 0 -186.5 -73.5t-75.5 -200.5h512v4q0 129 -68.5 199.5t-181.5 70.5zM780 436v43h-256q-100 0 -159.5 -41 t-59.5 -123q0 -80 53.5 -122.5t141.5 -42.5q125 0 202.5 79.5t77.5 206.5z" glyph-name="ae" horiz-adv-x="1820" unicode="æ"/><glyph d="M575 158q96 0 161 55t79 143h215q-20 -162 -134 -263t-286 -111l-37 -68q70 10 131.5 -28t61.5 -115q0 -86 -65.5 -131.5t-147.5 -42t-141 42.5v104q55 -51 139 -43t84 76q0 43 -47 62.5t-131 -3.5v58l55 88q-193 23 -304.5 166t-111.5 378q0 258 135.5 405.5 t354.5 147.5q182 0 302 -103.5t142 -273.5h-215q-14 90 -79.5 144.5t-160.5 54.5q-123 0 -194.5 -95t-71.5 -278q0 -180 71.5 -275t194.5 -95z" glyph-name="ccedilla" horiz-adv-x="1110" unicode="ç"/><glyph d="M627 1278l-64 -102l-413 235l94 154zM575 150q94 0 157 43t85 118h205q-31 -154 -151.5 -242.5t-295.5 -88.5q-219 0 -349 144t-130 404q0 258 131 404.5t348 146.5q209 0 330 -132t121 -351q0 -74 -6 -117h-715v-4q0 -160 72.5 -242.5t197.5 -82.5zM569 909 q-119 0 -186.5 -73.5t-75.5 -200.5h512v4q0 129 -68.5 199.5t-181.5 70.5z" glyph-name="egrave" horiz-adv-x="1122" unicode="è"/><glyph d="M971 1411l-412 -235l-65 102l383 287zM575 150q94 0 157 43t85 118h205q-31 -154 -151.5 -242.5t-295.5 -88.5q-219 0 -349 144t-130 404q0 258 131 404.5t348 146.5q209 0 330 -132t121 -351q0 -74 -6 -117h-715v-4q0 -160 72.5 -242.5t197.5 -82.5zM569 909 q-119 0 -186.5 -73.5t-75.5 -200.5h512v4q0 129 -68.5 199.5t-181.5 70.5z" glyph-name="eacute" horiz-adv-x="1122" unicode="é"/><glyph d="M563 1405l-221 -229l-100 96l256 262h133l254 -260l-103 -98zM575 150q94 0 157 43t85 118h205q-31 -154 -151.5 -242.5t-295.5 -88.5q-219 0 -349 144t-130 404q0 258 131 404.5t348 146.5q209 0 330 -132t121 -351q0 -74 -6 -117h-715v-4q0 -160 72.5 -242.5 t197.5 -82.5zM569 909q-119 0 -186.5 -73.5t-75.5 -200.5h512v4q0 129 -68.5 199.5t-181.5 70.5z" glyph-name="ecircumflex" horiz-adv-x="1122" unicode="ê"/><glyph d="M471 1442v-205h-238v205h238zM887 1442v-205h-236v205h236zM575 150q94 0 157 43t85 118h205q-31 -154 -151.5 -242.5t-295.5 -88.5q-219 0 -349 144t-130 404q0 258 131 404.5t348 146.5q209 0 330 -132t121 -351q0 -74 -6 -117h-715v-4q0 -160 72.5 -242.5t197.5 -82.5 zM569 909q-119 0 -186.5 -73.5t-75.5 -200.5h512v4q0 129 -68.5 199.5t-181.5 70.5z" glyph-name="edieresis" horiz-adv-x="1122" unicode="ë"/><glyph d="M303 1176l-414 235l95 154l383 -287zM197 0v1059h206v-1059h-206z" glyph-name="igrave" horiz-adv-x="598" unicode="ì"/><glyph d="M299 1176l-66 102l383 287l95 -154zM197 0v1059h206v-1059h-206z" glyph-name="iacute" horiz-adv-x="598" unicode="í"/><glyph d="M-18 1272l256 262h133l254 -260l-103 -98l-219 229l-221 -229zM197 0v1059h206v-1059h-206z" glyph-name="icircumflex" horiz-adv-x="598" unicode="î"/><glyph d="M-27 1237v205h238v-205h-238zM391 1237v205h236v-205h-236zM197 0v1059h206v-1059h-206z" glyph-name="idieresis" horiz-adv-x="598" unicode="ï"/><glyph d="M782 1268q131 -162 205 -355.5t74 -388.5q0 -250 -135 -397t-348 -147t-347.5 141t-134.5 371q0 223 132 370.5t343 147.5q80 0 154 -29q-49 104 -137 217l-295 -108v153l190 70q-111 106 -272 223h276q102 -68 191 -154l260 95v-152zM575 158q121 0 197 94t76 246 q0 150 -74 241.5t-194.5 91.5t-196.5 -91t-76 -244q0 -152 74.5 -245t193.5 -93z" glyph-name="eth" horiz-adv-x="1157" unicode="ð"/><glyph d="M762 1184q-57 -4 -145.5 38t-133.5 40q-59 -4 -108 -68l-88 61q78 156 202 160q57 4 143.5 -37t129.5 -39q61 0 110 70l91 -63q-78 -160 -201 -162zM172 0v1059h186l21 -174q41 86 136 140t206 54q178 0 272 -105.5t94 -303.5v-670h-206v639q0 262 -222 262 q-139 0 -209.5 -90t-70.5 -219v-592h-207z" glyph-name="ntilde" horiz-adv-x="1247" unicode="ñ"/><glyph d="M582 1176l-414 235l94 154l383 -287zM96 526q0 248 132 400.5t351.5 152.5t350.5 -152.5t131 -400.5q0 -250 -134 -398t-347 -148q-215 0 -349.5 147t-134.5 399zM307 528q0 -178 75 -274t196 -96q123 0 196.5 98t73.5 274.5t-73 273.5t-195 97q-125 0 -199 -98.5 t-74 -274.5z" glyph-name="ograve" horiz-adv-x="1157" unicode="ò"/><glyph d="M578 1176l-66 102l383 287l94 -154zM96 526q0 248 132 400.5t351.5 152.5t350.5 -152.5t131 -400.5q0 -250 -134 -398t-347 -148q-215 0 -349.5 147t-134.5 399zM307 528q0 -178 75 -274t196 -96q123 0 196.5 98t73.5 274.5t-73 273.5t-195 97q-125 0 -199 -98.5 t-74 -274.5z" glyph-name="oacute" horiz-adv-x="1157" unicode="ó"/><glyph d="M260 1272l256 262h133l254 -260l-102 -98l-219 229l-222 -229zM96 526q0 248 132 400.5t351.5 152.5t350.5 -152.5t131 -400.5q0 -250 -134 -398t-347 -148q-215 0 -349.5 147t-134.5 399zM307 528q0 -178 75 -274t196 -96q123 0 196.5 98t73.5 274.5t-73 273.5t-195 97 q-125 0 -199 -98.5t-74 -274.5z" glyph-name="ocircumflex" horiz-adv-x="1157" unicode="ô"/><glyph d="M717 1184q-57 -4 -145.5 38t-133.5 40q-59 -4 -108 -68l-88 61q78 156 202 160q57 4 143.5 -37t129.5 -39q61 0 110 70l91 -63q-78 -160 -201 -162zM96 526q0 248 132 400.5t351.5 152.5t350.5 -152.5t131 -400.5q0 -250 -134 -398t-347 -148q-215 0 -349.5 147 t-134.5 399zM307 528q0 -178 75 -274t196 -96q123 0 196.5 98t73.5 274.5t-73 273.5t-195 97q-125 0 -199 -98.5t-74 -274.5z" glyph-name="otilde" horiz-adv-x="1157" unicode="õ"/><glyph d="M252 1237v205h237v-205h-237zM670 1237v205h235v-205h-235zM96 526q0 248 132 400.5t351.5 152.5t350.5 -152.5t131 -400.5q0 -250 -134 -398t-347 -148q-215 0 -349.5 147t-134.5 399zM307 528q0 -178 75 -274t196 -96q123 0 196.5 98t73.5 274.5t-73 273.5t-195 97 q-125 0 -199 -98.5t-74 -274.5z" glyph-name="odieresis" horiz-adv-x="1157" unicode="ö"/><glyph d="M508 874v259h258v-259h-258zM125 500v184h1028v-184h-1028zM508 61v261h258v-261h-258z" glyph-name="divide" horiz-adv-x="1277" unicode="÷"/><glyph d="M579.5 1079q219.5 0 350.5 -152.5t131 -400.5q0 -250 -134 -398t-347 -148q-215 0 -349.5 147t-134.5 399q0 248 132 400.5t351.5 152.5zM580 901q-125 0 -199 -98t-74 -275q0 -59 8 -102l484 342q-74 133 -219 133zM578 158q123 0 196.5 98t73.5 274q0 59 -8 101 l-482 -340q73 -133 220 -133z" glyph-name="oslash" horiz-adv-x="1159" unicode="ø"/><glyph d="M678 1278l-64 -102l-413 235l94 154zM852 1059h207v-1059h-187l-16 176q-37 -90 -128 -143t-210 -53q-168 0 -264 106.5t-96 284.5v688h207v-635q0 -268 223 -268q133 0 198.5 89t65.5 236v578z" glyph-name="ugrave" horiz-adv-x="1222" unicode="ù"/><glyph d="M1022 1411l-412 -235l-65 102l383 287zM852 1059h207v-1059h-187l-16 176q-37 -90 -128 -143t-210 -53q-168 0 -264 106.5t-96 284.5v688h207v-635q0 -268 223 -268q133 0 198.5 89t65.5 236v578z" glyph-name="uacute" horiz-adv-x="1222" unicode="ú"/><glyph d="M614 1405l-221 -229l-100 96l256 262h133l254 -260l-102 -98zM852 1059h207v-1059h-187l-16 176q-37 -90 -128 -143t-210 -53q-168 0 -264 106.5t-96 284.5v688h207v-635q0 -268 223 -268q133 0 198.5 89t65.5 236v578z" glyph-name="ucircumflex" horiz-adv-x="1222" unicode="û"/><glyph d="M522 1442v-205h-237v205h237zM938 1442v-205h-236v205h236zM852 1059h207v-1059h-187l-16 176q-37 -90 -128 -143t-210 -53q-168 0 -264 106.5t-96 284.5v688h207v-635q0 -268 223 -268q133 0 198.5 89t65.5 236v578z" glyph-name="udieresis" horiz-adv-x="1222" unicode="ü"/><glyph d="M938 1411l-412 -235l-65 102l383 287zM834 1059h208l-469 -1198q-25 -63 -47 -103.5t-61 -86.5t-97.5 -67.5t-136.5 -21.5q-98 0 -159 29v166q238 -72 303 100l51 133l-408 1049h211l301 -826q131 381 207 574z" glyph-name="yacute" horiz-adv-x="1060" unicode="ý"/><glyph d="M707 1079q207 0 327.5 -150.5t120.5 -408.5q0 -242 -120 -391t-320 -149q-113 0 -201 48t-129 128v-566h-207v1946h207v-631q43 80 129.5 127t192.5 47zM668 156q119 0 197.5 93t78.5 271q0 188 -78 284.5t-198.5 96.5t-197.5 -86t-85 -227v-119q8 -141 85 -227t198 -86z " glyph-name="thorn" horiz-adv-x="1249" unicode="þ"/><glyph d="M438 1442v-205h-237v205h237zM854 1442v-205h-236v205h236zM834 1059h208l-469 -1198q-25 -63 -47 -103.5t-61 -86.5t-97.5 -67.5t-136.5 -21.5q-98 0 -159 29v166q238 -72 303 100l51 133l-408 1049h211l301 -826q131 381 207 574z" glyph-name="ydieresis" horiz-adv-x="1060" unicode="ÿ"/><glyph d="M942 1825v-148h-604v148h604zM1044 0l-129 395h-546l-131 -395h-228l514 1485h234l522 -1485h-236zM426 573h432l-215 658z" glyph-name="Amacron" horiz-adv-x="1292" unicode="Ā"/><glyph d="M870 1399v-148h-604v148h604zM1040 150q14 0 35 4v-154q-51 -14 -106 -14q-180 0 -191 184q-37 -88 -130 -139t-214 -51q-156 0 -249 86t-93 231q0 147 95.5 231t248.5 97l228 22q31 2 49 7t35.5 29t17.5 65q0 82 -54.5 122.5t-148.5 40.5q-106 0 -172.5 -49t-79.5 -133 h-202q23 168 145.5 259t314.5 91q207 0 307.5 -99t100.5 -273v-469q0 -88 63 -88zM772 453v53l-278 -23q-193 -18 -193 -174q0 -76 50 -117.5t134 -41.5q127 0 207 86t80 217z" glyph-name="amacron" horiz-adv-x="1134" unicode="ā"/><glyph d="M639 1602q-139 0 -223 83.5t-84 217.5h137q0 -76 49 -124t121 -48q74 0 123 47t49 125h137q0 -131 -85 -216t-224 -85zM1044 0l-129 395h-546l-131 -395h-228l514 1485h234l522 -1485h-236zM426 573h432l-215 658z" glyph-name="Abreve" horiz-adv-x="1292" unicode="Ă"/><glyph d="M567 1176q-137 0 -222 83.5t-85 217.5h137q0 -76 49.5 -124t120.5 -48q74 0 123 47t49 125h138q0 -131 -85.5 -216t-224.5 -85zM1040 150q14 0 35 4v-154q-51 -14 -106 -14q-180 0 -191 184q-37 -88 -130 -139t-214 -51q-156 0 -249 86t-93 231q0 147 95.5 231t248.5 97 l228 22q31 2 49 7t35.5 29t17.5 65q0 82 -54.5 122.5t-148.5 40.5q-106 0 -172.5 -49t-79.5 -133h-202q23 168 145.5 259t314.5 91q207 0 307.5 -99t100.5 -273v-469q0 -88 63 -88zM772 453v53l-278 -23q-193 -18 -193 -174q0 -76 50 -117.5t134 -41.5q127 0 207 86t80 217z " glyph-name="abreve" horiz-adv-x="1134" unicode="ă"/><glyph d="M1229 -276q29 0 55 6v-113q-61 -10 -84 -10q-100 0 -153.5 51t-53.5 131q0 125 121 211h-70l-129 395h-546l-131 -395h-228l514 1485h234l522 -1485q-70 -31 -110 -80t-40 -104q1 -92 99 -92zM426 573h432l-215 658z" glyph-name="Aogonek" horiz-adv-x="1292" unicode="Ą"/><glyph d="M1018 -10q-117 -68 -117 -168q0 -92 98 -92q29 0 56 6v-113q-61 -10 -84 -10q-100 0 -153.5 51t-53.5 131q0 117 115 207q-94 37 -101 168q-37 -88 -130 -139t-214 -51q-156 0 -249 86t-93 231q0 147 95.5 231t248.5 97l228 22q31 2 49 7t35.5 29t17.5 65 q0 82 -54.5 122.5t-148.5 40.5q-106 0 -172.5 -49t-79.5 -133h-202q23 168 145.5 259t314.5 91q207 0 307.5 -99t100.5 -273v-469q0 -88 63 -88q14 0 35 4v-154q-30 -8 -57 -10zM772 453v53l-278 -23q-193 -18 -193 -174q0 -76 50 -117.5t134 -41.5q127 0 207 86t80 217z " glyph-name="aogonek" horiz-adv-x="1134" unicode="ą"/><glyph d="M735 1602l-65 102l383 287l94 -154zM102 743q0 358 178.5 560t469.5 202q252 0 413.5 -140t179.5 -374h-229q-16 145 -113.5 230.5t-248.5 85.5q-207 0 -314.5 -151.5t-107.5 -412.5q0 -262 107.5 -413.5t314.5 -151.5q152 0 249 85t113 231h229q-18 -231 -182 -372.5 t-411 -141.5q-291 0 -469.5 201.5t-178.5 561.5z" glyph-name="Cacute" horiz-adv-x="1419" unicode="Ć"/><glyph d="M551 1176l-66 102l383 287l95 -154zM96 526q0 258 135.5 405.5t354.5 147.5q182 0 302 -103.5t142 -273.5h-215q-14 90 -79.5 144.5t-160.5 54.5q-123 0 -194.5 -95t-71.5 -278q0 -180 72 -275t194 -95q96 0 161 55t79 143h215q-23 -170 -147.5 -273t-311.5 -103 q-217 0 -346 146t-129 400z" glyph-name="cacute" horiz-adv-x="1110" unicode="ć"/><glyph d="M618 1659v207h238v-207h-238zM102 743q0 358 178.5 560t469.5 202q252 0 413.5 -140t179.5 -374h-229q-16 145 -113.5 230.5t-248.5 85.5q-207 0 -314.5 -151.5t-107.5 -412.5q0 -262 107.5 -413.5t314.5 -151.5q152 0 249 85t113 231h229q-18 -231 -182 -372.5 t-411 -141.5q-291 0 -469.5 201.5t-178.5 561.5z" glyph-name="Cdotaccent" horiz-adv-x="1419" unicode="Ċ"/><glyph d="M434 1233v207h238v-207h-238zM96 526q0 258 135.5 405.5t354.5 147.5q182 0 302 -103.5t142 -273.5h-215q-14 90 -79.5 144.5t-160.5 54.5q-123 0 -194.5 -95t-71.5 -278q0 -180 72 -275t194 -95q96 0 161 55t79 143h215q-23 -170 -147.5 -273t-311.5 -103 q-217 0 -346 146t-129 400z" glyph-name="cdotaccent" horiz-adv-x="1110" unicode="ċ"/><glyph d="M414 1882l102 98l219 -231l219 231l103 -98l-254 -260h-135zM102 743q0 358 178.5 560t469.5 202q252 0 413.5 -140t179.5 -374h-229q-16 145 -113.5 230.5t-248.5 85.5q-207 0 -314.5 -151.5t-107.5 -412.5q0 -262 107.5 -413.5t314.5 -151.5q152 0 249 85t113 231h229 q-18 -231 -182 -372.5t-411 -141.5q-291 0 -469.5 201.5t-178.5 561.5z" glyph-name="Ccaron" horiz-adv-x="1419" unicode="Č"/><glyph d="M229 1456l103 98l219 -231l219 231l102 -98l-254 -260h-135zM96 526q0 258 135.5 405.5t354.5 147.5q182 0 302 -103.5t142 -273.5h-215q-14 90 -79.5 144.5t-160.5 54.5q-123 0 -194.5 -95t-71.5 -278q0 -180 72 -275t194 -95q96 0 161 55t79 143h215 q-23 -170 -147.5 -273t-311.5 -103q-217 0 -346 146t-129 400z" glyph-name="ccaron" horiz-adv-x="1110" unicode="č"/><glyph d="M276 1882l103 98l219 -231l219 231l103 -98l-254 -260h-136zM195 0v1485h469q344 0 543.5 -199t199.5 -543t-199.5 -543.5t-543.5 -199.5h-469zM408 197h260q248 0 383 143t135 403q0 262 -136.5 404.5t-381.5 142.5h-260v-1093z" glyph-name="Dcaron" horiz-adv-x="1511" unicode="Ď"/><glyph d="M651 1933l103 99l219 -232l219 232l102 -99l-254 -260h-135zM535 -20q-197 0 -318 147t-121 395q0 250 125 401.5t330 151.5q223 0 319 -174v635h207v-1536h-186l-6 188q-35 -96 -132 -152t-218 -56zM588 156q123 0 198.5 86t83.5 225v123q-8 139 -83.5 224t-198.5 85 q-133 0 -206 -100.5t-73 -274.5q0 -176 75 -272t204 -96z" glyph-name="dcaron" horiz-adv-x="1253" unicode="ď"/><glyph d="M664 1485q344 0 543.5 -199t199.5 -543t-199.5 -543.5t-543.5 -199.5h-469v657h-181v179h181v649h469zM668 197q248 0 383 143t135 403q0 262 -136.5 404.5t-381.5 142.5h-260v-454h278v-179h-278v-460h260z" glyph-name="Dcroat" horiz-adv-x="1511" unicode="Đ"/><glyph d="M1251 1346v-166h-174v-1180h-186l-6 188q-35 -96 -132.5 -152t-217.5 -56q-197 0 -318 147t-121 395q0 250 125 401.5t330 151.5q223 0 319 -174v279h-340v166h340v190h207v-190h174zM870 467v123q-8 139 -83.5 224t-198.5 85q-133 0 -206 -100.5t-73 -274.5 q0 -176 75 -272t204 -96q123 0 198.5 86t83.5 225z" glyph-name="dcroat" horiz-adv-x="1255" unicode="đ"/><glyph d="M330 1677v148h604v-148h-604zM195 0v1485h972v-195h-757v-454h555v-185h-555v-454h757v-197h-972z" glyph-name="Emacron" horiz-adv-x="1263" unicode="Ē"/><glyph d="M862 1399v-148h-604v148h604zM575 150q94 0 157 43t85 118h205q-31 -154 -151.5 -242.5t-295.5 -88.5q-219 0 -349 144t-130 404q0 258 131 404.5t348 146.5q209 0 330 -132t121 -351q0 -74 -6 -117h-715v-4q0 -160 72.5 -242.5t197.5 -82.5zM569 909 q-119 0 -186.5 -73.5t-75.5 -200.5h512v4q0 129 -68.5 199.5t-181.5 70.5z" glyph-name="emacron" horiz-adv-x="1122" unicode="ē"/><glyph d="M514 1659v207h238v-207h-238zM195 0v1485h972v-195h-757v-454h555v-185h-555v-454h757v-197h-972z" glyph-name="Edotaccent" horiz-adv-x="1263" unicode="Ė"/><glyph d="M680 1440v-207h-238v207h238zM575 150q94 0 157 43t85 118h205q-31 -154 -151.5 -242.5t-295.5 -88.5q-219 0 -349 144t-130 404q0 258 131 404.5t348 146.5q209 0 330 -132t121 -351q0 -74 -6 -117h-715v-4q0 -160 72.5 -242.5t197.5 -82.5zM569 909 q-119 0 -186.5 -73.5t-75.5 -200.5h512v4q0 129 -68.5 199.5t-181.5 70.5z" glyph-name="edotaccent" horiz-adv-x="1122" unicode="ė"/><glyph d="M1114 -276q29 0 55 6v-113q-61 -10 -84 -10q-100 0 -153 51t-53 131q0 125 120 211h-804v1485h972v-195h-757v-454h555v-185h-555v-454h757v-197h-2q-70 -31 -109.5 -80t-39.5 -104q0 -92 98 -92z" glyph-name="Eogonek" horiz-adv-x="1263" unicode="Ę"/><glyph d="M575 150q94 0 157 43t85 118h205q-29 -143 -135.5 -230t-261.5 -99q-76 -59 -76 -140q0 -92 98 -92q29 0 55 6v-112q-61 -10 -84 -11q-100 0 -153 51.5t-53 131.5q0 94 75 170q-182 29 -286.5 170t-104.5 372q0 258 131 404.5t348 146.5q209 0 330 -132t121 -351 q0 -74 -6 -117h-715v-4q0 -160 72.5 -242.5t197.5 -82.5zM569 909q-119 0 -186.5 -73.5t-75.5 -200.5h512v4q0 129 -68.5 199.5t-181.5 70.5z" glyph-name="eogonek" horiz-adv-x="1122" unicode="ę"/><glyph d="M309 1882l103 98l219 -231l219 231l102 -98l-254 -260h-135zM195 0v1485h972v-195h-757v-454h555v-185h-555v-454h757v-197h-972z" glyph-name="Ecaron" horiz-adv-x="1263" unicode="Ě"/><glyph d="M627 1196h-135l-254 260l102 98l219 -231l219 231l103 -98zM575 150q94 0 157 43t85 118h205q-31 -154 -151.5 -242.5t-295.5 -88.5q-219 0 -349 144t-130 404q0 258 131 404.5t348 146.5q209 0 330 -132t121 -351q0 -74 -6 -117h-715v-4q0 -160 72.5 -242.5t197.5 -82.5 zM569 909q-119 0 -186.5 -73.5t-75.5 -200.5h512v4q0 129 -68.5 199.5t-181.5 70.5z" glyph-name="ecaron" horiz-adv-x="1122" unicode="ě"/><glyph d="M1059 1903q0 -131 -85 -216t-224.5 -85t-223.5 83.5t-84 217.5h138q0 -76 49 -124t121 -48q74 0 123 47t49 125h137zM760 -20q-303 0 -477 205.5t-174 549.5q0 360 179 565t472 205q246 0 407.5 -136t178.5 -355h-226q-20 135 -118.5 215t-241.5 80q-207 0 -314.5 -150.5 t-107.5 -419.5q0 -274 110.5 -419.5t313.5 -145.5q182 0 283.5 112.5t97.5 303.5h-434v184h657v-170q0 -285 -165 -454.5t-441 -169.5z" glyph-name="Gbreve" horiz-adv-x="1501" unicode="Ğ"/><glyph d="M551 1176q-137 0 -222 83.5t-85 217.5h137q0 -76 49 -124t121 -48q74 0 123 47t49 125h137q0 -131 -85 -216t-224 -85zM727 190q174 0 262 -77.5t88 -202.5q0 -162 -137 -251t-385 -89q-223 0 -345 77t-122 210q0 147 137 204q-86 47 -86 156q0 70 41 122t107 71 q-158 100 -158 292q0 166 121 271.5t315 105.5q143 0 234 -61q23 68 79 101.5t123 33.5q33 0 64 -6v-180q-23 6 -47 6q-90 0 -141 -35q96 -90 96 -238q0 -162 -117 -261t-303 -99q-70 0 -135 16q-45 0 -70.5 -22.5t-25.5 -61.5q0 -82 120 -82h285zM557 922 q-102 0 -163.5 -58.5t-61.5 -156.5q0 -94 59.5 -151.5t159.5 -57.5t159.5 58t59.5 157q0 96 -57.5 152.5t-155.5 56.5zM563 -262q309 0 309 160q0 43 -18 68.5t-56 35.5t-67 13t-74 3h-249q-72 0 -105 -36.5t-33 -87.5q0 -156 293 -156z" glyph-name="gbreve" horiz-adv-x="1126" unicode="ğ"/><glyph d="M633 1659v207h237v-207h-237zM760 -20q-303 0 -477 205.5t-174 549.5q0 360 179 565t472 205q246 0 407.5 -136t178.5 -355h-226q-20 135 -118.5 215t-241.5 80q-207 0 -314.5 -150.5t-107.5 -419.5q0 -274 110.5 -419.5t313.5 -145.5q182 0 283.5 112.5t97.5 303.5h-434 v184h657v-170q0 -285 -165 -454.5t-441 -169.5z" glyph-name="Gdotaccent" horiz-adv-x="1501" unicode="Ġ"/><glyph d="M672 1440v-207h-238v207h238zM727 190q174 0 262 -77.5t88 -202.5q0 -162 -137 -251t-385 -89q-223 0 -345 77t-122 210q0 147 137 204q-86 47 -86 156q0 70 41 122t107 71q-158 100 -158 292q0 166 121 271.5t315 105.5q143 0 234 -61q23 68 79 101.5t123 33.5 q33 0 64 -6v-180q-23 6 -47 6q-90 0 -141 -35q96 -90 96 -238q0 -162 -117 -261t-303 -99q-70 0 -135 16q-45 0 -70.5 -22.5t-25.5 -61.5q0 -82 120 -82h285zM557 922q-102 0 -163.5 -58.5t-61.5 -156.5q0 -94 59.5 -151.5t159.5 -57.5t159.5 58t59.5 157q0 96 -57.5 152.5 t-155.5 56.5zM563 -262q309 0 309 160q0 43 -18 68.5t-56 35.5t-67 13t-74 3h-249q-72 0 -105 -36.5t-33 -87.5q0 -156 293 -156z" glyph-name="gdotaccent" horiz-adv-x="1126" unicode="ġ"/><glyph d="M760 -20q-303 0 -477 205.5t-174 549.5q0 360 179 565t472 205q246 0 407.5 -136t178.5 -355h-226q-20 135 -118.5 215t-241.5 80q-207 0 -314.5 -150.5t-107.5 -419.5q0 -274 110.5 -419.5t313.5 -145.5q182 0 283.5 112.5t97.5 303.5h-434v184h657v-170 q0 -285 -165 -454.5t-441 -169.5zM653 -461v58q53 2 79 34.5t20 81.5h-99v176h195v-161q0 -189 -195 -189z" glyph-name="Gcommaaccent" horiz-adv-x="1501" unicode="Ģ"/><glyph d="M649 1419v-182h-194v180q0 205 194 205v-59q-106 -2 -100 -144h100zM727 190q174 0 262 -77.5t88 -202.5q0 -162 -137 -251t-385 -89q-223 0 -345 77t-122 210q0 147 137 204q-86 47 -86 156q0 70 41 122t107 71q-158 100 -158 292q0 166 121 271.5t315 105.5 q143 0 234 -61q23 68 79 101.5t123 33.5q33 0 64 -6v-180q-23 6 -47 6q-90 0 -141 -35q96 -90 96 -238q0 -162 -117 -261t-303 -99q-70 0 -135 16q-45 0 -70.5 -22.5t-25.5 -61.5q0 -82 120 -82h285zM557 922q-102 0 -163.5 -58.5t-61.5 -156.5q0 -94 59.5 -151.5 t159.5 -57.5t159.5 58t59.5 157q0 96 -57.5 152.5t-155.5 56.5zM563 -262q309 0 309 160q0 43 -18 68.5t-56 35.5t-67 13t-74 3h-249q-72 0 -105 -36.5t-33 -87.5q0 -156 293 -156z" glyph-name="gcommaaccent" horiz-adv-x="1126" unicode="ģ"/><glyph d="M1534 1329v-166h-197v-1163h-215v666h-712v-666h-215v1163h-162v166h162v156h215v-156h712v156h215v-156h197zM1122 852v311h-712v-311h712z" glyph-name="Hbar" horiz-adv-x="1531" unicode="Ħ"/><glyph d="M725 1079q176 0 271.5 -107.5t95.5 -293.5v-678h-207v637q0 264 -221 264q-137 0 -209 -87t-72 -220v-594h-207v1180h-151v166h151v190h207v-190h362v-166h-362v-295q43 88 136 141t206 53z" glyph-name="hbar" horiz-adv-x="1239" unicode="ħ"/><glyph d="M0 1677v148h604v-148h-604zM410 0h-215v1485h215v-1485z" glyph-name="Imacron" horiz-adv-x="606" unicode="Ī"/><glyph d="M-2 1251v148h604v-148h-604zM197 0v1059h206v-1059h-206z" glyph-name="imacron" horiz-adv-x="598" unicode="ī"/><glyph d="M358 -276q27 0 56 6v-113q-61 -10 -84 -10q-100 0 -153.5 51t-53.5 131q0 125 121 211h-49v1485h215v-1485q-70 -31 -110 -80t-40 -104q0 -92 98 -92z" glyph-name="Iogonek" horiz-adv-x="606" unicode="Į"/><glyph d="M182 1440h238v-207h-238v207zM197 0v1059h206v-1059h-16q-70 -31 -109.5 -80t-39.5 -104q0 -92 98 -92q29 0 55 6v-113q-61 -10 -84 -10q-100 0 -153.5 51t-53.5 131q0 125 121 211h-24z" glyph-name="iogonek" horiz-adv-x="598" unicode="į"/><glyph d="M184 1659v207h238v-207h-238zM410 0h-215v1485h215v-1485z" glyph-name="Idotaccent" horiz-adv-x="606" unicode="İ"/><glyph d="M197 0v1059h206v-1059h-206z" glyph-name="dotlessi" horiz-adv-x="598" unicode="ı"/><glyph d="M1315 1485l-535 -658l504 -827h-260l-389 647l-238 -291v-356h-213v1485h213v-809l645 809h273zM569 -287v176h195v-161q0 -188 -195 -189v58q53 2 79 34.5t20 81.5h-99z" glyph-name="Kcommaaccent" horiz-adv-x="1337" unicode="Ķ"/><glyph d="M1079 1059l-381 -379l369 -680h-233l-281 535l-191 -189v-346h-204v1536h204v-938l457 461h260zM449 -287v176h194v-161q0 -188 -194 -189v58q53 2 78.5 34.5t19.5 81.5h-98z" glyph-name="kcommaaccent" horiz-adv-x="1089" unicode="ķ"/><glyph d="M289 1602l-66 102l383 287l94 -154zM184 0v1485h213v-1286h633v-199h-846z" glyph-name="Lacute" horiz-adv-x="1060" unicode="Ĺ"/><glyph d="M274 1655l-65 102l383 287l94 -154zM172 0v1536h209v-1536h-209z" glyph-name="lacute" horiz-adv-x="552" unicode="ĺ"/><glyph d="M184 0v1485h213v-1286h633v-199h-846zM432 -461v58q53 2 79 34.5t19 81.5h-98v176h195v-161q0 -189 -195 -189z" glyph-name="Lcommaaccent" horiz-adv-x="1060" unicode="Ļ"/><glyph d="M172 0v1536h209v-1536h-209zM178 -461v58q53 2 79 34.5t19 81.5h-98v176h195v-161q0 -189 -195 -189z" glyph-name="lcommaaccent" horiz-adv-x="552" unicode="ļ"/><glyph d="M-33 1882l103 98l219 -231l219 231l102 -98l-254 -260h-135zM184 0v1485h213v-1286h633v-199h-846z" glyph-name="Lcaron" horiz-adv-x="1060" unicode="Ľ"/><glyph d="M-47 1935l102 99l219 -232l220 232l102 -99l-254 -260h-135zM172 0v1536h209v-1536h-209z" glyph-name="lcaron" horiz-adv-x="552" unicode="ľ"/><glyph d="M397 199h633v-199h-846v647l-118 -41v187l118 41v651h213v-580l197 68v-187l-197 -67v-520z" glyph-name="Lslash" horiz-adv-x="1060" unicode="Ł"/><glyph d="M524 973v-187l-143 -51v-735h-209v662l-143 -52v189l143 51v686h209v-614z" glyph-name="lslash" horiz-adv-x="552" unicode="ł"/><glyph d="M1163 1837l-411 -235l-66 102l383 287zM1100 1485h213v-1485h-213l-692 1116v-1116h-213v1485h213l692 -1118v1118z" glyph-name="Nacute" horiz-adv-x="1509" unicode="Ń"/><glyph d="M623 1176l-66 102l383 287l94 -154zM172 0v1059h186l21 -174q41 86 136 140t206 54q178 0 272 -105.5t94 -303.5v-670h-206v639q0 262 -222 262q-139 0 -209.5 -90t-70.5 -219v-592h-207z" glyph-name="nacute" horiz-adv-x="1247" unicode="ń"/><glyph d="M1100 1485h213v-1485h-213l-692 1116v-1116h-213v1485h213l692 -1118v1118zM655 -287v176h195v-161q0 -188 -195 -189v58q53 2 79 34.5t20 81.5h-99z" glyph-name="Ncommaaccent" horiz-adv-x="1509" unicode="Ņ"/><glyph d="M172 0v1059h186l21 -174q41 86 136 140t206 54q178 0 272 -105.5t94 -303.5v-670h-206v639q0 262 -222 262q-139 0 -209.5 -90t-70.5 -219v-592h-207zM526 -461v58q53 2 79 34.5t20 81.5h-99v176h195v-161q0 -189 -195 -189z" glyph-name="ncommaaccent" horiz-adv-x="1247" unicode="ņ"/><glyph d="M819 1622h-135l-254 260l102 98l220 -231l219 231l102 -98zM1100 1485h213v-1485h-213l-692 1116v-1116h-213v1485h213l692 -1118v1118z" glyph-name="Ncaron" horiz-adv-x="1509" unicode="Ň"/><glyph d="M301 1456l102 98l220 -231l219 231l102 -98l-254 -260h-135zM172 0v1059h186l21 -174q41 86 136 140t206 54q178 0 272 -105.5t94 -303.5v-670h-206v639q0 262 -222 262q-139 0 -209.5 -90t-70.5 -219v-592h-207z" glyph-name="ncaron" horiz-adv-x="1247" unicode="ň"/><glyph d="M1100 1485h213v-1542q0 -358 -342 -359q-92 0 -135 19v172q43 -12 92 -13q172 0 172 187v51l-692 1116v-1116h-213v1485h213l692 -1118v1118z" glyph-name="Eng" horiz-adv-x="1509" unicode="Ŋ"/><glyph d="M721 1079q178 0 272 -105.5t94 -303.5v-727q0 -358 -342 -359q-86 0 -135 19v172q43 -12 92 -13q178 0 179 187v690q0 262 -222 262q-139 0 -209.5 -90t-70.5 -219v-592h-207v1059h186l21 -174q41 86 136 140t206 54z" glyph-name="eng" horiz-adv-x="1247" unicode="ŋ"/><glyph d="M442 1677v148h605v-148h-605zM104 743q0 358 177.5 560t463.5 202q293 0 466 -206.5t173 -555.5q0 -358 -177 -560.5t-462 -202.5q-295 0 -468 206.5t-173 556.5zM332 743q0 -276 112.5 -420.5t300.5 -144.5q197 0 304.5 152.5t107.5 412.5q0 274 -112.5 419t-299.5 145 q-199 0 -306 -151t-107 -413z" glyph-name="Omacron" horiz-adv-x="1488" unicode="Ō"/><glyph d="M276 1251v148h605v-148h-605zM96 526q0 248 132 400.5t351.5 152.5t350.5 -152.5t131 -400.5q0 -250 -134 -398t-347 -148q-215 0 -349.5 147t-134.5 399zM307 528q0 -178 75 -274t196 -96q123 0 196.5 98t73.5 274.5t-73 273.5t-195 97q-125 0 -199 -98.5t-74 -274.5z " glyph-name="omacron" horiz-adv-x="1157" unicode="ō"/><glyph d="M539 1602l-64 100l377 287l94 -152zM940 1602l-63 100l376 287l95 -152zM104 743q0 358 177.5 560t463.5 202q293 0 466 -206.5t173 -555.5q0 -358 -177 -560.5t-462 -202.5q-295 0 -468 206.5t-173 556.5zM332 743q0 -276 112.5 -420.5t300.5 -144.5q197 0 304.5 152.5 t107.5 412.5q0 274 -112.5 419t-299.5 145q-199 0 -306 -151t-107 -413z" glyph-name="Ohungarumlaut" horiz-adv-x="1488" unicode="Ő"/><glyph d="M373 1176l-64 100l377 287l94 -152zM774 1176l-63 100l376 287l95 -152zM96 526q0 248 132 400.5t351.5 152.5t350.5 -152.5t131 -400.5q0 -250 -134 -398t-347 -148q-215 0 -349.5 147t-134.5 399zM307 528q0 -178 75 -274t196 -96q123 0 196.5 98t73.5 274.5t-73 273.5 t-195 97q-125 0 -199 -98.5t-74 -274.5z" glyph-name="ohungarumlaut" horiz-adv-x="1157" unicode="ő"/><glyph d="M104 743q0 358 180.5 550t487.5 192h1057v-195h-758v-454h555v-185h-555v-454h758v-197h-1057q-315 0 -491.5 196.5t-176.5 546.5zM332 743q0 -276 115.5 -411t324.5 -135h86v1093h-86q-217 0 -328.5 -143.5t-111.5 -403.5z" glyph-name="OE" horiz-adv-x="1925" unicode="Œ"/><glyph d="M1337 150q94 0 156.5 43t85.5 118h205q-31 -154 -152 -242.5t-295 -88.5q-250 0 -381 184q-133 -184 -376 -184q-215 0 -349.5 147t-134.5 399q0 248 132 400.5t352 152.5q246 0 376 -186q129 186 381 186q209 0 330 -132t121 -351q0 -74 -6 -117h-715v-4 q0 -160 72.5 -242.5t197.5 -82.5zM1331 909q-119 0 -186.5 -73.5t-75.5 -200.5h512v4q0 129 -68.5 199.5t-181.5 70.5zM578 158q123 0 196.5 98t73.5 274.5t-73 273.5t-195 97q-125 0 -199 -98t-74 -275q0 -178 75 -274t196 -96z" glyph-name="oe" horiz-adv-x="1884" unicode="œ"/><glyph d="M1053 1837l-412 -235l-66 102l383 287zM1012 596l291 -596h-236l-268 565h-389v-565h-215v1485h581q260 0 391 -133t131 -332q0 -150 -72.5 -262.5t-213.5 -161.5zM770 748q154 0 230.5 71.5t76.5 198.5q0 135 -81 203.5t-226 68.5h-360v-542h360z" glyph-name="Racute" horiz-adv-x="1392" unicode="Ŕ"/><glyph d="M856 1411l-412 -235l-65 102l383 287zM379 911q27 74 97.5 115t158.5 41q45 0 80 -8v-182q-27 4 -66 4q-266 0 -266 -303v-578h-207v1059h180z" glyph-name="racute" horiz-adv-x="753" unicode="ŕ"/><glyph d="M1012 596l291 -596h-236l-268 565h-389v-565h-215v1485h581q260 0 391 -133t131 -332q0 -150 -72.5 -262.5t-213.5 -161.5zM770 748q154 0 230.5 71.5t76.5 198.5q0 135 -81 203.5t-226 68.5h-360v-542h360zM598 -287v176h195v-161q0 -188 -195 -189v58q53 2 78.5 34.5 t19.5 81.5h-98z" glyph-name="Rcommaaccent" horiz-adv-x="1392" unicode="Ŗ"/><glyph d="M635 1067q45 0 80 -8v-182q-27 4 -66 4q-266 0 -266 -303v-578h-207v1059h180l23 -148q27 74 97.5 115t158.5 41zM182 -287v176h195v-161q0 -188 -195 -189v58q53 2 79 34.5t20 81.5h-99z" glyph-name="rcommaaccent" horiz-adv-x="753" unicode="ŗ"/><glyph d="M709 1622h-136l-254 260l103 98l219 -231l219 231l103 -98zM1012 596l291 -596h-236l-268 565h-389v-565h-215v1485h581q260 0 391 -133t131 -332q0 -150 -72.5 -262.5t-213.5 -161.5zM770 748q154 0 230.5 71.5t76.5 198.5q0 135 -81 203.5t-226 68.5h-360v-542h360z " glyph-name="Rcaron" horiz-adv-x="1392" unicode="Ř"/><glyph d="M512 1196h-135l-254 260l102 98l219 -231l220 231l102 -98zM379 911q27 74 97.5 115t158.5 41q45 0 80 -8v-182q-27 4 -66 4q-266 0 -266 -303v-578h-207v1059h180z" glyph-name="rcaron" horiz-adv-x="753" unicode="ř"/><glyph d="M629 1602l-66 102l383 287l94 -154zM86 457h215q0 -143 89 -217t251 -74q137 0 219 62.5t82 164.5q0 100 -54 151.5t-161 82.5l-215 57q-385 106 -385 403q0 188 136 303t368 115q229 0 370.5 -115.5t143.5 -318.5h-211q-4 115 -86 182.5t-219 67.5q-127 0 -200 -58.5 t-73 -160.5q0 -84 57.5 -133t182.5 -84l211 -58q367 -98 367 -421q0 -190 -150 -308t-387 -118q-260 0 -405.5 130t-145.5 347z" glyph-name="Sacute" horiz-adv-x="1259" unicode="Ś"/><glyph d="M510 1176l-66 102l383 287l95 -154zM297 313q2 -82 60.5 -127t158.5 -45q94 0 148.5 40t54.5 108q0 35 -13.5 60.5t-41 41t-41 20.5t-41.5 13l-183 51q-287 76 -286 293q0 139 106.5 225t280.5 86q176 0 285.5 -87t109.5 -232h-205q-2 74 -54 114.5t-136 40.5 q-86 0 -133.5 -36.5t-47.5 -100.5q0 -59 40 -85.5t126 -49.5l191 -49q252 -68 252 -291q0 -147 -114 -235t-300 -88q-188 0 -304 91t-120 242h207z" glyph-name="sacute" horiz-adv-x="1017" unicode="ś"/><glyph d="M1174 406q0 -178 -133.5 -294t-350.5 -130l-39 -68q70 10 131.5 -28t61.5 -115q0 -86 -65.5 -131.5t-147.5 -42t-142 42.5v104q55 -51 139.5 -43t84.5 76q0 43 -47.5 62.5t-130.5 -3.5v58l55 88q-240 12 -372 140t-132 335h215q0 -143 89 -217t251 -74q137 0 219 62.5 t82 164.5q0 100 -54 151.5t-161 82.5l-215 57q-385 106 -385 403q0 188 136 303t368 115q229 0 370.5 -115.5t143.5 -318.5h-211q-4 115 -86 182.5t-219 67.5q-127 0 -200 -58.5t-73 -160.5q0 -84 57.5 -133t182.5 -84l211 -58q367 -97 367 -421z" glyph-name="Scedilla" horiz-adv-x="1259" unicode="Ş"/><glyph d="M928 303q0 -139 -99.5 -225t-265.5 -96l-31 -54q70 10 131.5 -27.5t61.5 -115.5q0 -86 -65.5 -131t-147.5 -42t-141 42v104q55 -51 139 -42.5t84 75.5q0 43 -47 62.5t-131 -3.5v58l45 74q-166 12 -266.5 101t-104.5 230h207q2 -82 60.5 -127t158.5 -45q94 0 148.5 40 t54.5 108q0 35 -13.5 60.5t-41 41t-41 20.5t-41.5 13l-183 51q-287 76 -286 293q0 139 106.5 225t280.5 86q176 0 285.5 -87t109.5 -232h-205q-2 74 -54 114.5t-136 40.5q-86 0 -133.5 -36.5t-47.5 -100.5q0 -59 40 -85.5t126 -49.5l191 -49q252 -68 252 -291z" glyph-name="scedilla" horiz-adv-x="1017" unicode="ş"/><glyph d="M307 1882l103 98l219 -231l219 231l102 -98l-254 -260h-135zM86 457h215q0 -143 89 -217t251 -74q137 0 219 62.5t82 164.5q0 100 -54 151.5t-161 82.5l-215 57q-385 106 -385 403q0 188 136 303t368 115q229 0 370.5 -115.5t143.5 -318.5h-211q-4 115 -86 182.5 t-219 67.5q-127 0 -200 -58.5t-73 -160.5q0 -84 57.5 -133t182.5 -84l211 -58q367 -98 367 -421q0 -190 -150 -308t-387 -118q-260 0 -405.5 130t-145.5 347z" glyph-name="Scaron" horiz-adv-x="1259" unicode="Š"/><glyph d="M188 1456l103 98l219 -231l219 231l102 -98l-253 -260h-136zM297 313q2 -82 60.5 -127t158.5 -45q94 0 148.5 40t54.5 108q0 35 -13.5 60.5t-41 41t-41 20.5t-41.5 13l-183 51q-287 76 -286 293q0 139 106.5 225t280.5 86q176 0 285.5 -87t109.5 -232h-205 q-2 74 -54 114.5t-136 40.5q-86 0 -133.5 -36.5t-47.5 -100.5q0 -59 40 -85.5t126 -49.5l191 -49q252 -68 252 -291q0 -147 -114 -235t-300 -88q-188 0 -304 91t-120 242h207z" glyph-name="scaron" horiz-adv-x="1017" unicode="š"/><glyph d="M668 0h-31l-49 -86q70 10 131 -28t61 -115q0 -86 -65.5 -131.5t-147.5 -42t-141 42.5v104q55 -51 139 -43t84 76q0 43 -48 62.5t-130 -3.5v58l66 106h-82v1296h-430v189h1075v-189h-432v-1296z" glyph-name="Tcommaaccent" horiz-adv-x="1124" unicode="Ţ"/><glyph d="M537 -86q70 10 131 -28t61 -115q0 -86 -65.5 -131.5t-147.5 -42t-141 42.5v104q55 -51 139 -43t84 76q0 43 -47 62.5t-131 -3.5v58l59 96q-223 45 -223 329v566h-219v174h90q74 0 101.5 30.5t27.5 96.5v168h205v-295h254v-174h-254v-535q0 -104 37 -148t123 -44 q37 0 94 8v-166q-84 -18 -140 -18z" glyph-name="tcommaaccent" horiz-adv-x="774" unicode="ţ"/><glyph d="M627 1622h-135l-254 260l102 98l219 -231l219 231l103 -98zM1100 1485v-189h-432v-1296h-213v1296h-430v189h1075z" glyph-name="Tcaron" horiz-adv-x="1124" unicode="Ť"/><glyph d="M35 1751l102 98l219 -231l219 231l103 -98l-254 -260h-135zM567 -18q-311 0 -311 337v566h-219v174h90q74 0 101.5 30.5t27.5 96.5v168h205v-295h254v-174h-254v-535q0 -104 37 -148t123 -44q37 0 94 8v-166q-89 -18 -148 -18z" glyph-name="tcaron" horiz-adv-x="774" unicode="ť"/><glyph d="M1100 1296h-432v-551h245v-147h-245v-598h-213v598h-244v147h244v551h-430v189h1075v-189z" glyph-name="Tbar" horiz-adv-x="1146" unicode="Ŧ"/><glyph d="M717 549h-256v-199q0 -104 37 -148t123 -44q37 0 94 8v-166q-88 -18 -148 -18q-311 0 -311 337v230h-221v186h221v150h-219v174h90q74 0 101.5 30.5t27.5 96.5v168h205v-295h254v-174h-254v-150h256v-186z" glyph-name="tbar" horiz-adv-x="774" unicode="ŧ"/><glyph d="M440 1677v148h604v-148h-604zM166 539v946h215v-936q0 -371 362.5 -371t362.5 371v936h215v-946q0 -258 -153.5 -408.5t-424 -150.5t-424 150.5t-153.5 408.5z" glyph-name="Umacron" horiz-adv-x="1486" unicode="Ū"/><glyph d="M913 1399v-148h-604v148h604zM852 1059h207v-1059h-187l-16 176q-37 -90 -128 -143t-210 -53q-168 0 -264 106.5t-96 284.5v688h207v-635q0 -268 223 -268q133 0 198.5 89t65.5 236v578z" glyph-name="umacron" horiz-adv-x="1222" unicode="ū"/><glyph d="M979 1665q0 -100 -68.5 -166.5t-167.5 -66.5q-100 0 -168.5 66.5t-68.5 166.5t65.5 166.5t171.5 66.5q104 0 170 -66.5t66 -166.5zM866 1665q0 53 -34.5 89t-88.5 36q-55 0 -90 -36t-35 -89q0 -51 36 -88t89.5 -37t88 37t34.5 88zM166 539v946h215v-936 q0 -371 362.5 -371t362.5 371v936h215v-946q0 -258 -153.5 -408.5t-424 -150.5t-424 150.5t-153.5 408.5z" glyph-name="Uring" horiz-adv-x="1486" unicode="Ů"/><glyph d="M612 1006q-100 0 -168.5 66.5t-68.5 166.5t65.5 167t171.5 67q104 0 170 -67t66 -167t-69 -166.5t-167 -66.5zM612 1364q-55 0 -90 -36t-35 -89q0 -51 36 -88t89.5 -37t88 37t34.5 88q0 53 -35 89t-88 36zM852 1059h207v-1059h-187l-16 176q-37 -90 -128 -143t-210 -53 q-168 0 -264 106.5t-96 284.5v688h207v-635q0 -268 223 -268q133 0 198.5 89t65.5 236v578z" glyph-name="uring" horiz-adv-x="1222" unicode="ů"/><glyph d="M537 1602l-64 100l377 287l94 -152zM938 1602l-64 100l377 287l95 -152zM166 539v946h215v-936q0 -371 362.5 -371t362.5 371v936h215v-946q0 -258 -153.5 -408.5t-424 -150.5t-424 150.5t-153.5 408.5z" glyph-name="Uhungarumlaut" horiz-adv-x="1486" unicode="Ű"/><glyph d="M813 1411l-407 -235l-64 100l377 287zM807 1176l-64 100l377 287l94 -152zM852 481v578h207v-1059h-187l-16 176q-37 -90 -128 -143t-210 -53q-168 0 -264 106.5t-96 284.5v688h207v-635q0 -268 223 -268q133 0 198.5 89t65.5 236z" glyph-name="uhungarumlaut" horiz-adv-x="1222" unicode="ű"/><glyph d="M1106 1485h215v-946q0 -246 -139.5 -394.5t-386.5 -162.5q-113 -70 -113 -166q0 -92 98 -92q27 0 56 6v-113q-61 -10 -84 -10q-100 0 -153.5 51t-53.5 131q0 111 102 197q-227 27 -354 173t-127 380v946h215v-936q0 -371 362.5 -371t362.5 371v936z" glyph-name="Uogonek" horiz-adv-x="1486" unicode="Ų"/><glyph d="M1008 -276q29 0 55 6v-113q-61 -10 -84 -10q-100 0 -153.5 51t-53.5 131q0 125 121 211h-21l-16 176q-37 -90 -128 -143t-210 -53q-168 0 -264 106.5t-96 284.5v688h207v-635q0 -268 223 -268q133 0 198.5 89t65.5 236v578h207v-1059q-70 -31 -110 -80t-40 -104 q1 -92 99 -92z" glyph-name="uogonek" horiz-adv-x="1222" unicode="ų"/><glyph d="M977 1831l-221 -229l-101 96l256 262h133l254 -260l-102 -98zM1649 1485h237l-323 -1485h-246q-254 860 -336 1184q-94 -379 -332 -1184h-248l-338 1485h236l236 -1186q104 381 337 1186h215q252 -858 340 -1190z" glyph-name="Wcircumflex" horiz-adv-x="1949" unicode="Ŵ"/><glyph d="M831 1405l-221 -229l-100 96l256 262h133l254 -260l-102 -98zM1378 1059h213l-309 -1059h-246q-141 494 -205 782q-57 -270 -196 -782h-256l-311 1059h221q61 -236 225 -858q10 47 32.5 140t74 296t104.5 422h213q59 -238 110.5 -435.5t74 -285.5t32.5 -131 q57 254 223 852z" glyph-name="wcircumflex" horiz-adv-x="1658" unicode="ŵ"/><glyph d="M287 1698l256 262h133l254 -260l-103 -98l-219 229l-221 -229zM2 1485h248l358 -699l350 699h252l-495 -916v-569h-217v569z" glyph-name="Ycircumflex" horiz-adv-x="1212" unicode="Ŷ"/><glyph d="M530 1405l-221 -229l-100 96l256 262h133l254 -260l-102 -98zM834 1059h208l-469 -1198q-25 -63 -47 -103.5t-61 -86.5t-97.5 -67.5t-136.5 -21.5q-98 0 -159 29v166q238 -72 303 100l51 133l-408 1049h211l301 -826q131 381 207 574z" glyph-name="ycircumflex" horiz-adv-x="1060" unicode="ŷ"/><glyph d="M279 1663v205h237v-205h-237zM696 1663v205h236v-205h-236zM2 1485h248l358 -699l350 699h252l-495 -916v-569h-217v569z" glyph-name="Ydieresis" horiz-adv-x="1212" unicode="Ÿ"/><glyph d="M997 1837l-411 -235l-66 102l383 287zM1090 1485v-174l-738 -1116h727v-195h-995v174l737 1118h-737v193h1006z" glyph-name="Zacute" horiz-adv-x="1173" unicode="Ź"/><glyph d="M926 1411l-412 -235l-65 102l382 287zM350 172h586v-172h-834v154l576 731h-576v174h826v-158z" glyph-name="zacute" horiz-adv-x="1028" unicode="ź"/><glyph d="M707 1866v-207h-238v207h238zM1090 1485v-174l-738 -1116h727v-195h-995v174l737 1118h-737v193h1006z" glyph-name="Zdotaccent" horiz-adv-x="1173" unicode="Ż"/><glyph d="M635 1440v-207h-238v207h238zM350 172h586v-172h-834v154l576 731h-576v174h826v-158z" glyph-name="zdotaccent" horiz-adv-x="1028" unicode="ż"/><glyph d="M653 1622h-135l-254 260l103 98l219 -231l219 231l102 -98zM1090 1485v-174l-738 -1116h727v-195h-995v174l737 1118h-737v193h1006z" glyph-name="Zcaron" horiz-adv-x="1173" unicode="Ž"/><glyph d="M582 1196h-136l-253 260l102 98l219 -231l219 231l103 -98zM350 172h586v-172h-834v154l576 731h-576v174h826v-158z" glyph-name="zcaron" horiz-adv-x="1028" unicode="ž"/><glyph d="M918 1331q-152 0 -191 -186l-43 -211h295v-166h-328l-129 -625q-31 -150 -120 -226.5t-207 -76.5q-86 0 -164 17v172q61 -12 114 -13q84 0 122 47.5t59 139.5l118 565h-204v166h239l53 260q61 311 336 311q90 0 164 -16v-170q-110 12 -114 12z" glyph-name="florin" horiz-adv-x="1116" unicode="ƒ"/><glyph d="M86 457h215q0 -143 89 -217t251 -74q137 0 219 62.5t82 164.5q0 100 -54 151.5t-161 82.5l-215 57q-385 106 -385 403q0 188 136 303t368 115q229 0 370.5 -115.5t143.5 -318.5h-211q-4 115 -86 182.5t-219 67.5q-127 0 -200 -58.5t-73 -160.5q0 -84 57.5 -133t182.5 -84 l211 -58q367 -98 367 -421q0 -190 -150 -308t-387 -118q-260 0 -405.5 130t-145.5 347zM532 -461v58q53 2 79 34.5t20 81.5h-99v176h195v-161q0 -189 -195 -189z" glyph-name="Scommaaccent" horiz-adv-x="1259" unicode="Ș"/><glyph d="M297 313q2 -82 60.5 -127t158.5 -45q94 0 148.5 40t54.5 108q0 35 -13.5 60.5t-41 41t-41 20.5t-41.5 13l-183 51q-287 76 -286 293q0 139 106.5 225t280.5 86q176 0 285.5 -87t109.5 -232h-205q-2 74 -54 114.5t-136 40.5q-86 0 -133.5 -36.5t-47.5 -100.5 q0 -59 40 -85.5t126 -49.5l191 -49q252 -68 252 -291q0 -147 -114 -235t-300 -88q-188 0 -304 91t-120 242h207zM414 -446v57q53 2 78.5 34.5t19.5 82.5h-98v176h194v-162q1 -188 -194 -188z" glyph-name="scommaaccent" horiz-adv-x="1017" unicode="ș"/><glyph d="M1100 1485v-189h-432v-1296h-213v1296h-430v189h1075zM469 -287v176h195v-161q0 -188 -195 -189v58q53 2 78.5 34.5t19.5 81.5h-98z" glyph-name="uni021A" horiz-adv-x="1124" unicode="Ț"/><glyph d="M567 -18q-311 0 -311 337v566h-219v174h90q74 0 101.5 30.5t27.5 96.5v168h205v-295h254v-174h-254v-535q0 -104 37 -148t123 -44q37 0 94 8v-166q-89 -18 -148 -18zM418 -461v58q53 2 78.5 34.5t19.5 81.5h-98v176h194v-161q1 -189 -194 -189z" glyph-name="uni021B" horiz-adv-x="774" unicode="ț"/><glyph d="M272 1581l256 262h134l253 -260l-102 -98l-219 229l-221 -229z" glyph-name="circumflex" horiz-adv-x="1228" unicode="ˆ"/><glyph d="M272 1765l103 99l219 -232l219 232l102 -99l-253 -260h-136z" glyph-name="caron" horiz-adv-x="1165" unicode="ˇ"/><glyph d="M678 1786q0 -131 -85 -216t-224.5 -85t-223.5 85t-84 216h138q0 -76 49 -124t121 -48q74 0 123 47t49 125h137z" glyph-name="breve" horiz-adv-x="739" unicode="˘"/><glyph d="M150 1542v207h237v-207h-237z" glyph-name="dotaccent" horiz-adv-x="536" unicode="˙"/><glyph d="M555 1597.5q0 -100.5 -68.5 -167t-167.5 -66.5q-100 0 -168.5 66.5t-68.5 167t65.5 167t171.5 66.5q104 0 170 -66.5t66 -167zM442 1597q0 53 -34.5 89t-88.5 36q-55 0 -89.5 -35.5t-34.5 -89.5q0 -51 35.5 -87.5t89 -36.5t88 36.5t34.5 87.5z" glyph-name="ring" horiz-adv-x="636" unicode="˚"/><glyph d="M330 -211q0 86 66.5 161t178.5 111l41 -61q-70 -31 -109.5 -80t-39.5 -104q0 -92 98 -92q29 0 56 6v-113q-61 -10 -84 -10q-100 0 -153.5 51t-53.5 131z" glyph-name="ogonek" horiz-adv-x="976" unicode="˛"/><glyph d="M561 1493q-57 -4 -145 38t-133 40q-59 -4 -109 -68l-88 62q78 156 203 159q57 4 143 -36.5t129 -38.5q61 0 111 69l90 -63q-78 -160 -201 -162z" glyph-name="tilde" horiz-adv-x="905" unicode="˜"/><glyph d="M276 1485l-63 100l377 287l94 -152zM678 1485l-64 100l377 287l94 -152z" glyph-name="hungarumlaut" horiz-adv-x="1193" unicode="˝"/><glyph d="M-113 1485l-413 235l94 154l383 -287z" glyph-name="gravecomb" unicode="̀"/><glyph d="M-475 1485l-66 102l383 287l95 -154z" glyph-name="acutecomb" unicode="́"/><glyph d="M-956 1581l256 262h133l254 -260l-103 -98l-219 229l-221 -229z" glyph-name="uni0302" unicode="̂"/><glyph d="M-344 1493q-57 -4 -145.5 38t-133.5 40q-59 -4 -108 -68l-88 62q78 156 203 159q57 4 143 -36.5t129 -38.5q61 0 111 69l90 -63q-78 -160 -201 -162z" glyph-name="tildecomb" unicode="̃"/><glyph d="M-741 1561v147h604v-147h-604z" glyph-name="uni0304" unicode="̄"/><glyph d="M-61 1786q0 -131 -85 -216t-225 -85q-137 0 -222 85t-85 216h137q0 -76 49.5 -124t120.5 -48q74 0 123 47t49 125h138z" glyph-name="uni0306" unicode="̆"/><glyph d="M-387 1542v207h237v-207h-237z" glyph-name="uni0307" unicode="̇"/><glyph d="M-803 1546v205h238v-205h-238zM-385 1546v205h235v-205h-235z" glyph-name="uni0308" unicode="̈"/><glyph d="M-82 1597.5q0 -100.5 -68.5 -167t-166.5 -66.5q-100 0 -169 66.5t-69 167t65.5 167t172.5 66.5q104 0 169.5 -66.5t65.5 -167zM-195 1597q0 53 -34.5 89t-87.5 36q-55 0 -90 -35.5t-35 -89.5q0 -51 35.5 -87.5t89 -36.5t88 36.5t34.5 87.5z" glyph-name="uni030A" unicode="̊"/><glyph d="M-918 1485l-63 100l377 287l94 -152zM-516 1485l-64 100l377 287l94 -152z" glyph-name="uni030B" unicode="̋"/><glyph d="M-893 1765l102 99l220 -232l219 232l102 -99l-254 -260h-135z" glyph-name="uni030C" unicode="̌"/><glyph d="M-631 1931v-59q-106 -2 -100 -143h100v-183h-194v180q-1 205 194 205z" glyph-name="uni0312" unicode="̒"/><glyph d="M-373 -459v58q53 2 79 34.5t20 81.5h-99v176h195v-161q0 -189 -195 -189z" glyph-name="uni0326" unicode="̦"/><glyph d="M-274 -86q70 10 131 -28t61 -115q0 -86 -65.5 -131.5t-147.5 -42t-141 42.5v104q55 -51 139 -43t84 76q0 43 -47 62.5t-131 -3.5v58l104 167h66v-53z" glyph-name="uni0327" unicode="̧"/><glyph d="M-647 -211q0 86 66.5 161t179.5 111l41 -61q-70 -31 -110 -80t-40 -104q0 -92 98 -92q27 0 56 6v-113q-61 -10 -84 -10q-100 0 -153.5 51t-53.5 131z" glyph-name="uni0328" unicode="̨"/><glyph d="M-852 598v147h702v-147h-702z" glyph-name="uni0335" unicode="̵"/><glyph glyph-name="uni0336" unicode="̶"/><glyph d="M-827 0l626 1485h187l-627 -1485h-186z" glyph-name="uni0337" unicode="̷"/><glyph d="M-827 0l626 1485h187l-627 -1485h-186z" glyph-name="uni0338" unicode="̸"/><glyph d="M57 0l31 178q162 -4 191 135l161 920q10 80 -27.5 102.5t-117.5 20.5l33 178l546 2l-30 -178q-139 12 -164 -123l-154 -834q-33 -184 -100 -243l29 -37q41 33 98 50t97 19.5t116 2.5h692q49 0 72.5 2t54.5 12t47.5 36.5t24.5 69.5l35 207h204l-71 -520h-1768zM1597 1253 q0 33 19.5 52.5t52.5 19.5q31 0 50.5 -19.5t19.5 -52.5q0 -29 -19.5 -49t-50.5 -20t-51.5 20t-20.5 49zM651 346l31 172h231l9 39q-188 92 -189 317q0 188 135.5 312.5t352.5 124.5q197 0 317.5 -103.5t120.5 -271.5q0 -135 -79 -239.5t-208 -139.5l-10 -39h217l-25 -172 h-407l41 250q125 20 201.5 103t76.5 198q0 109 -68.5 172.5t-183.5 63.5q-129 0 -210.5 -80t-81.5 -203q0 -94 48 -163t128 -91l-43 -250h-404zM1614 1255q0 -27 15.5 -42t40 -15t38.5 15.5t14 39.5q0 57 -53 58q-55 -1 -55 -56zM1642 1219v71h33q25 0 25 -22q0 -14 -14 -23 l14 -26h-17l-12 24h-14v-24h-15zM1657 1253h14q14 0 14.5 12.5t-12.5 12.5h-16v-25z" glyph-name="omega" horiz-adv-x="2060" unicode="ω"/><glyph d="M1040 1704l-63 -102l-414 235l94 154zM1649 1485h237l-323 -1485h-246q-254 860 -336 1184q-94 -379 -332 -1184h-248l-338 1485h236l236 -1186q104 381 337 1186h215q252 -858 340 -1190z" glyph-name="Wgrave" horiz-adv-x="1949" unicode="Ẁ"/><glyph d="M895 1278l-64 -102l-413 235l94 154zM1378 1059h213l-309 -1059h-246q-141 494 -205 782q-57 -270 -196 -782h-256l-311 1059h221q61 -236 225 -858q10 47 32.5 140t74 296t104.5 422h213q59 -238 110.5 -435.5t74 -285.5t32.5 -131q57 254 223 852z" glyph-name="wgrave" horiz-adv-x="1658" unicode="ẁ"/><glyph d="M1384 1837l-411 -235l-66 102l383 287zM1649 1485h237l-323 -1485h-246q-254 860 -336 1184q-94 -379 -332 -1184h-248l-338 1485h236l236 -1186q104 381 337 1186h215q252 -858 340 -1190z" glyph-name="Wacute" horiz-adv-x="1949" unicode="Ẃ"/><glyph d="M1239 1411l-412 -235l-65 102l383 287zM1378 1059h213l-309 -1059h-246q-141 494 -205 782q-57 -270 -196 -782h-256l-311 1059h221q61 -236 225 -858q10 47 32.5 140t74 296t104.5 422h213q59 -238 110.5 -435.5t74 -285.5t32.5 -131q57 254 223 852z" glyph-name="wacute" horiz-adv-x="1658" unicode="ẃ"/><glyph d="M885 1868v-205h-238v205h238zM1300 1868v-205h-235v205h235zM1649 1485h237l-323 -1485h-246q-254 860 -336 1184q-94 -379 -332 -1184h-248l-338 1485h236l236 -1186q104 381 337 1186h215q252 -858 340 -1190z" glyph-name="Wdieresis" horiz-adv-x="1949" unicode="Ẅ"/><glyph d="M739 1442v-205h-237v205h237zM1155 1442v-205h-235v205h235zM1378 1059h213l-309 -1059h-246q-141 494 -205 782q-57 -270 -196 -782h-256l-311 1059h221q61 -236 225 -858q10 47 32.5 140t74 296t104.5 422h213q59 -238 110.5 -435.5t74 -285.5t32.5 -131 q57 254 223 852z" glyph-name="wdieresis" horiz-adv-x="1658" unicode="ẅ"/><glyph d="M608 1602l-413 235l94 154l383 -287zM2 1485h248l358 -699l350 699h252l-495 -916v-569h-217v569z" glyph-name="Ygrave" horiz-adv-x="1212" unicode="Ỳ"/><glyph d="M594 1278l-64 -102l-413 235l94 154zM834 1059h208l-469 -1198q-25 -63 -47 -103.5t-61 -86.5t-97.5 -67.5t-136.5 -21.5q-98 0 -159 29v166q238 -72 303 100l51 133l-408 1049h211l301 -826q131 381 207 574z" glyph-name="ygrave" horiz-adv-x="1060" unicode="ỳ"/><glyph d="M129 535v151h1165v-151h-1165z" glyph-name="endash" horiz-adv-x="1423" unicode="–"/><glyph d="M129 535v151h1575v-151h-1575z" glyph-name="emdash" horiz-adv-x="1832" unicode="—"/><glyph d="M381 1505v-80q-156 -6 -145 -178h145v-241h-262v237q0 262 262 262z" glyph-name="quoteleft" horiz-adv-x="499" unicode="‘"/><glyph d="M119 987v80q156 2 145 176h-145v242h262v-238q0 -260 -262 -260z" glyph-name="quoteright" horiz-adv-x="499" unicode="’"/><glyph d="M119 -276v81q154 6 145 195h-145v254h270v-250q0 -280 -270 -280z" glyph-name="quotesinglbase" horiz-adv-x="499" unicode="‚"/><glyph d="M119 1006v237q0 262 262 262v-80q-154 -6 -145 -178h145v-241h-262zM510 1006v237q0 143 73.5 202.5t188.5 59.5v-80q-154 -6 -145 -178h145v-241h-262z" glyph-name="quotedblleft" horiz-adv-x="890" unicode="“"/><glyph d="M119 987v80q156 2 145 176h-145v242h262v-238q0 -260 -262 -260zM510 987v80q156 2 145 176h-145v242h262v-238q0 -260 -262 -260z" glyph-name="quotedblright" horiz-adv-x="890" unicode="”"/><glyph d="M119 -276v81q154 6 145 195h-145v254h270v-250q0 -280 -270 -280zM522 -276v81q154 6 146 195h-146v254h271v-250q-1 -280 -271 -280z" glyph-name="quotedblbase" horiz-adv-x="911" unicode="„"/><glyph d="M399 1174v-533h-131v533h-205v118h205v193h131v-193h203v-118h-203z" glyph-name="dagger" horiz-adv-x="665" unicode="†"/><glyph d="M602 1174h-203v-222h203v-118h-203v-193h-133v193h-203v118h203v222h-203v118h203v193h133v-193h203v-118z" glyph-name="daggerdbl" horiz-adv-x="665" unicode="‡"/><glyph d="M137 551q0 119 79 199.5t194 80.5q117 0 198.5 -80.5t81.5 -199.5q0 -113 -82 -191.5t-198 -78.5q-115 0 -194 78.5t-79 191.5z" glyph-name="bullet" horiz-adv-x="827" unicode="•"/><glyph d="M150 0v242h247v-242h-247zM573 0v242h246v-242h-246zM999 0v242h246v-242h-246z" glyph-name="ellipsis" horiz-adv-x="1396" unicode="…"/><glyph d="M395 762q-123 0 -200.5 98t-77.5 274.5t78.5 272.5t201.5 96q125 0 203 -97t78 -273.5t-80 -273.5t-203 -97zM240 0l964 1485h152l-965 -1485h-151zM397 901q61 0 93 64.5t32 169.5q0 106 -32.5 169.5t-92.5 63.5q-61 0 -92 -63.5t-31 -170t32 -170t91 -63.5zM1223 -20 q-125 0 -203 98t-78 274t79 272.5t202 96.5q125 0 202.5 -97.5t77.5 -273.5t-78.5 -273t-201.5 -97zM1903 -20q-125 0 -203 98t-78 274t79 272.5t202 96.5q125 0 203.5 -97.5t78.5 -273.5t-79.5 -273t-202.5 -97zM1224.5 119q61.5 0 92.5 63.5t31 167.5q0 109 -33 171.5 t-92 62.5q-61 0 -92 -63.5t-31 -170t31.5 -169t93 -62.5zM1904.5 119q61.5 0 92.5 63.5t31 167.5q0 109 -33 171.5t-92 62.5q-61 0 -92 -63.5t-31 -170t31.5 -169t93 -62.5z" glyph-name="perthousand" horiz-adv-x="2299" unicode="‰"/><glyph d="M141 549l250 420h191l-230 -420l230 -420h-191z" glyph-name="guilsinglleft" horiz-adv-x="677" unicode="‹"/><glyph d="M539 549l-250 -420h-191l230 420l-230 420h191z" glyph-name="guilsinglright" horiz-adv-x="677" unicode="›"/><glyph d="M-272 0l788 1536h195l-791 -1536h-192z" glyph-name="fraction" horiz-adv-x="436" unicode="⁄"/><glyph d="M444 512q-180 0 -286.5 137t-106.5 395q0 260 108.5 395.5t286.5 135.5q180 0 288 -137.5t108 -395.5q0 -260 -110 -395t-288 -135zM446 666q213 0 213 378.5t-213 378.5t-213 -378.5t213 -378.5z" glyph-name="uni2070" horiz-adv-x="892" unicode="⁰"/><glyph d="M51 719v145l387 697h187l-383 -691h297v338h176v-338h125v-151h-125v-199h-176v199h-488z" glyph-name="uni2074" horiz-adv-x="884" unicode="⁴"/><glyph d="M438 1214q156 0 252 -97t96 -254.5t-102 -257t-264 -99.5q-160 0 -259.5 93t-101.5 243h181q-2 -82 48 -132.5t132 -50.5q84 0 134 55.5t50 145.5q0 92 -53 148.5t-135 56.5q-125 0 -162 -98h-174l82 594h567v-154h-422l-35 -242q70 49 166 49z" glyph-name="uni2075" horiz-adv-x="841" unicode="⁵"/><glyph d="M485 1210q150 0 247 -97t97 -249q0 -160 -103 -258t-265 -98q-195 0 -294 134t-99 374q0 262 102 410.5t301 148.5q141 0 232.5 -74t107.5 -198h-174q-8 57 -56.5 89.5t-115.5 32.5q-63 0 -108.5 -28.5t-67 -76.5t-30.5 -92t-11 -93v-33q75 108 237 108zM461 659 q82 0 135 56.5t53 146.5q0 92 -52 146.5t-136 54.5q-88 0 -138.5 -58.5t-50.5 -144.5t51.5 -143.5t137.5 -57.5z" glyph-name="uni2076" horiz-adv-x="882" unicode="⁶"/><glyph d="M57 1561h695v-140l-443 -901h-188l442 887h-506v154z" glyph-name="uni2077" horiz-adv-x="800" unicode="⁷"/><glyph d="M627 1100q80 -31 126 -105.5t46 -169.5q0 -143 -103.5 -231t-271.5 -88t-272.5 88t-104.5 231q0 94 46 169t126 104q-115 70 -115 209q0 119 87.5 193.5t232.5 74.5q147 0 233 -75t86 -193q1 -141 -116 -207zM424 1427q-66 0 -105.5 -37.5t-39.5 -95.5q0 -59 40.5 -98 t104 -39t105.5 39t42 98q0 57 -42 95t-105 38zM424 657q88 0 143.5 49.5t55.5 129.5q0 78 -55.5 128t-143.5 50t-142.5 -50.5t-54.5 -127.5q0 -80 54.5 -129.5t142.5 -49.5z" glyph-name="uni2078" horiz-adv-x="847" unicode="⁸"/><glyph d="M438 1575q193 0 292 -142.5t99 -396.5q0 -250 -98 -389t-293 -139q-143 0 -237.5 74.5t-108.5 197.5h172q10 -59 58.5 -91t117.5 -32q209 0 209 293v37q-76 -115 -243 -115q-145 0 -241.5 97.5t-96.5 249.5q0 162 103 259t267 97zM438 1020q86 0 136.5 58.5t50.5 144.5 q0 84 -50.5 142t-136.5 58q-84 0 -136 -56t-52 -146.5t51 -145.5t137 -55z" glyph-name="uni2079" horiz-adv-x="882" unicode="⁹"/><glyph d="M444 -213q-180 0 -286.5 137t-106.5 395.5t109.5 394.5t285.5 136q180 0 288 -137.5t108 -395.5q0 -260 -110 -395t-288 -135zM446 -61q213 0 213 380q0 377 -213 377t-213 -377q0 -380 213 -380z" glyph-name="uni2080" horiz-adv-x="892" unicode="₀"/><glyph d="M70 518v172l241 146h162v-1041h-174v854z" glyph-name="uni2081" horiz-adv-x="612" unicode="₁"/><glyph d="M348 -47h414v-158h-662v146l373 401q102 111 102 203q0 72 -44 112.5t-119 40.5q-78 0 -123 -50t-43 -132h-178q0 147 95 240.5t249 93.5q156 0 250 -83t94 -218q0 -145 -150 -309z" glyph-name="uni2082" horiz-adv-x="835" unicode="₂"/><glyph d="M604 340q158 -68 158 -254q0 -137 -100.5 -221t-258.5 -84q-162 0 -255 90t-91 238h181q-2 -82 43 -130.5t125 -48.5q78 0 127 44t49 116q0 80 -51.5 123t-137.5 43h-82v145h68q88 0 135 43t47 111q0 66 -44 104.5t-114 38.5q-78 0 -122.5 -46t-42.5 -130h-179 q-2 145 93.5 236.5t250.5 91.5q147 0 242.5 -77t95.5 -206q0 -159 -137 -227z" glyph-name="uni2083" horiz-adv-x="825" unicode="₃"/><glyph d="M51 -6v143l387 699h187l-383 -691h297v338h176v-338h125v-151h-125v-199h-176v199h-488z" glyph-name="uni2084" horiz-adv-x="884" unicode="₄"/><glyph d="M438 489q156 0 252 -97t96 -254.5t-102 -257t-264 -99.5q-160 0 -259.5 92t-101.5 242h181q-2 -80 48 -131.5t132 -51.5t133 56.5t51 146.5q0 92 -53 148.5t-135 56.5q-125 0 -162 -98h-174l82 594h567v-154h-422l-35 -242q70 49 166 49z" glyph-name="uni2085" horiz-adv-x="841" unicode="₅"/><glyph d="M485 485q150 0 247 -97t97 -251q0 -158 -103 -257t-265 -99q-195 0 -294 135t-99 375q0 262 102 410.5t301 148.5q141 0 232.5 -75t107.5 -200h-174q-8 59 -56.5 92t-115.5 33q-63 0 -108.5 -28.5t-67 -76.5t-30.5 -92t-11 -93v-33q75 108 237 108zM461 -66 q82 0 135 55.5t53 145.5q0 92 -52 147.5t-136 55.5q-88 0 -138.5 -58.5t-50.5 -144.5t51.5 -143.5t137.5 -57.5z" glyph-name="uni2086" horiz-adv-x="882" unicode="₆"/><glyph d="M57 836h695v-140l-443 -901h-188l442 887h-506v154z" glyph-name="uni2087" horiz-adv-x="800" unicode="₇"/><glyph d="M627 375q82 -31 127 -104.5t45 -170.5q0 -145 -103.5 -233t-271.5 -88t-272.5 88t-104.5 233q0 94 46 169t126 104q-115 70 -115 209q0 119 87.5 193.5t232.5 74.5t232 -76t87 -192q1 -146 -116 -207zM424 702q-66 0 -105.5 -37.5t-39.5 -95.5q0 -59 40.5 -98t104 -39 t105.5 39t42 98q0 57 -42 95t-105 38zM424 -68q88 0 143.5 49.5t55.5 129.5q0 78 -55.5 128t-143.5 50t-142.5 -50.5t-54.5 -127.5q0 -82 54.5 -130.5t142.5 -48.5z" glyph-name="uni2088" horiz-adv-x="847" unicode="₈"/><glyph d="M438 850q193 0 292 -142.5t99 -396.5q0 -252 -98 -391t-293 -139q-143 0 -237.5 74.5t-108.5 199.5h172q10 -59 57.5 -92t118.5 -33q209 0 209 295v37q-76 -115 -243 -115q-145 0 -241.5 97.5t-96.5 249.5q0 162 103 259t267 97zM438 295q86 0 136.5 57.5t50.5 143.5 t-50.5 144t-136.5 58q-84 0 -136 -56t-52 -146t51 -145.5t137 -55.5z" glyph-name="uni2089" horiz-adv-x="882" unicode="₉"/><glyph d="M879 1313q-174 0 -295 -79t-176 -224h514l-21 -166h-532q-6 -49 -7 -103q0 -49 3 -71h522l-21 -164h-471q51 -162 175 -250t311 -88q78 0 163 12v-186q-106 -14 -184 -12q-274 2 -453.5 141t-238.5 383h-148v164h123q-2 23 -2 71q0 37 4 103h-125v166h156q66 227 243 357 t441 132q84 0 184 -14v-187q-71 15 -165 15z" glyph-name="Euro" horiz-adv-x="1081" unicode="€"/><glyph d="M1298 1499q158 0 256.5 -102.5t98.5 -255.5q0 -158 -100.5 -256.5t-254.5 -98.5q-152 0 -251 99.5t-99 255.5q0 154 97 256t253 102zM1790 1485h188v-174h-188v174zM651 1065v418h152v-682h-141l-285 418v-418h-152v682h144zM1298 911q86 0 141.5 63.5t55.5 172.5 q0 102 -53 164.5t-142 62.5q-86 0 -140 -60.5t-54 -166.5q0 -109 54 -172.5t138 -63.5zM1790 801v176h188v-176h-188z" glyph-name="afii61352" horiz-adv-x="2148" unicode="№"/><glyph d="M885 -20q-338 0 -561.5 210.5t-223.5 550.5q0 338 224.5 551t562.5 213q336 0 558 -212t222 -549.5t-222 -550.5t-560 -213zM884.5 102q280.5 0 465 178.5t184.5 463t-184.5 461.5t-465 177t-464.5 -178t-184 -462.5t184 -462t464.5 -177.5zM621 340v799h362 q135 0 215 -74t80 -197t-80 -197.5t-215 -74.5h-215v-256h-147zM764 725h213q68 0 107.5 39t39.5 104q0 61 -40 99.5t-107 38.5h-213v-281z" glyph-name="uni2117" horiz-adv-x="1767" unicode="℗"/><glyph d="M53 1358v127h522v-127h-188v-555h-145v555h-189zM692 803v682h174l172 -514l172 514h170v-682h-141v153q0 147 12 277l-143 -430h-141l-144 430q12 -92 13 -277v-153h-144z" glyph-name="trademark" horiz-adv-x="1435" unicode="™"/><glyph d="M1479 469q-53 -219 -233.5 -353t-424.5 -134q-319 0 -512.5 208.5t-189.5 546.5q4 330 194.5 539t507.5 209q295 0 484.5 -185.5t189.5 -502.5q4 -55 0 -109h-1167v-377q68 -119 199.5 -184.5t293.5 -65.5q205 0 361.5 113t206.5 295h90zM328 1143v-381h960v420 q-80 106 -205 164.5t-274 56.5q-152 -2 -276.5 -70.5t-204.5 -189.5z" glyph-name="estimated" horiz-adv-x="1611" unicode="℮"/><glyph d="M1284 1536h195l-791 -1536h-192zM518 520h-162v793l-213 -123v162l224 133h151v-965zM1827 537q74 -27 117 -97.5t43 -154.5q0 -135 -98.5 -217t-254 -82t-253 82t-97.5 217q0 86 43 155.5t117 96.5q-106 63 -107 194q0 109 81 178.5t216 69.5q137 0 218 -69.5t81 -178.5 q0 -133 -106 -194zM1634.5 842q-59.5 0 -97.5 -35t-38 -88q0 -55 38 -91t97.5 -36t98.5 36t39 91q0 53 -39 88t-98.5 35zM1634 127q80 0 133.5 45t53.5 119t-52.5 121t-134.5 47t-133 -47t-51 -121t51 -119t133 -45z" glyph-name="oneeighth" horiz-adv-x="2052" unicode="⅛"/><glyph d="M1407 1536h195l-791 -1536h-193zM743 788q0 -127 -92 -204.5t-241.5 -77.5t-237.5 84t-84 221h166q-2 -78 42 -122t116 -44q74 0 118.5 42t44.5 108q0 72 -48 110.5t-126 38.5h-75v143h61q82 0 124 38t42 102q0 61 -40 97t-105 36q-76 0 -115 -45t-37 -119h-166 q-4 137 84 220t236 83q139 0 227 -70.5t88 -191.5q0 -147 -135 -213q153 -60 153 -236zM1950 537q74 -27 116.5 -97.5t42.5 -154.5q0 -135 -98 -217t-253.5 -82t-253 82t-97.5 217q0 86 43 155.5t117 96.5q-106 63 -107 194q0 109 81 178.5t216 69.5q137 0 218 -69.5 t81 -178.5q0 -133 -106 -194zM1757.5 842q-59.5 0 -97.5 -35t-38 -88q0 -55 38 -91t97.5 -36t98 36t38.5 91q0 53 -38.5 88t-98 35zM1757 127q80 0 133.5 45t53.5 119t-52.5 121t-134.5 47t-133 -47t-51 -121t51 -119t133 -45z" glyph-name="threeeighths" horiz-adv-x="2174" unicode="⅜"/><glyph d="M1370 1536h195l-791 -1536h-192zM756 840q0 -150 -95.5 -242t-246.5 -92q-150 0 -241 87t-93 224h166q-2 -72 44 -120t124 -48t126 52.5t48 134.5q0 86 -50.5 138t-129.5 52q-111 0 -146 -90h-164l78 549h524v-142h-391l-33 -225q59 47 154 47q145 0 235.5 -90t90.5 -235 zM1913 537q74 -27 117 -97.5t43 -154.5q0 -135 -98.5 -217t-254 -82t-253 82t-97.5 217q0 86 43 155.5t117 96.5q-106 63 -107 194q0 109 81 178.5t216 69.5q137 0 218 -69.5t81 -178.5q0 -133 -106 -194zM1720.5 842q-59.5 0 -97.5 -35t-38 -88q0 -55 38 -91t97.5 -36 t98.5 36t39 91q0 53 -39 88t-98.5 35zM1720 127q80 0 133.5 45t53.5 119t-52.5 121t-134.5 47t-133 -47t-51 -121t51 -119t133 -45z" glyph-name="fiveeighths" horiz-adv-x="2138" unicode="⅝"/><glyph d="M1192 1536h194l-790 -1536h-193zM739 1485v-129l-379 -836h-174l379 823h-477v142h651zM1735 537q74 -27 116.5 -97.5t42.5 -154.5q0 -135 -98 -217t-254 -82t-253 82t-97 217q0 86 43 155.5t117 96.5q-106 63 -107 194q0 109 81 178.5t216 69.5q137 0 218 -69.5 t81 -178.5q0 -133 -106 -194zM1542.5 842q-59.5 0 -97.5 -35t-38 -88q0 -55 38 -91t97.5 -36t98 36t38.5 91q0 53 -38.5 88t-98 35zM1542 127q80 0 133.5 45t53.5 119t-52.5 121t-134.5 47t-133 -47t-51 -121t51 -119t133 -45z" glyph-name="seveneighths" horiz-adv-x="1959" unicode="⅞"/><glyph d="M449 547l458 -461l-88 -86l-600 604l600 606l88 -86l-458 -458h937v-119h-937z" glyph-name="arrowleft" horiz-adv-x="1632" unicode="←"/><glyph d="M72 967l606 604l606 -606l-86 -84l-461 456v-1337h-119v1337l-458 -456z" glyph-name="arrowup" horiz-adv-x="1355" unicode="↑"/><glyph d="M811 0l-86 86l459 461h-938v119h938l-459 458l86 86l602 -606z" glyph-name="arrowright" horiz-adv-x="1638" unicode="→"/><glyph d="M72 555l88 84l458 -463v1301h119v-1301l461 465l86 -86l-606 -604z" glyph-name="arrowdown" horiz-adv-x="1355" unicode="↓"/><glyph d="M1110 365l-917 915v-649h-117v854l854 -2v-119h-651l915 -915z" glyph-name="uni2196" horiz-adv-x="1267" unicode="↖"/><glyph d="M158 367l-86 84l917 915h-651v119h854v-852h-121v649z" glyph-name="uni2197" horiz-adv-x="1265" unicode="↗"/><glyph d="M989 121l-917 913l86 84l913 -915l2 651h123l-4 -854l-854 -2v123h651z" glyph-name="uni2198" horiz-adv-x="1269" unicode="↘"/><glyph d="M281 121h649v-121h-854v854h119v-651l917 915l84 -84z" glyph-name="uni2199" horiz-adv-x="1267" unicode="↙"/><glyph d="M1165 1014l-141 -150q106 -141 106 -340q0 -233 -143 -386.5t-371 -153.5q-193 0 -325 108l-135 -143l-95 86l142 149q-102 143 -103 340q0 233 142.5 386t373.5 153q184 0 320 -107l133 142zM295 522q0 -109 45 -192l467 491q-80 61 -191 62q-145 0 -233 -102.5 t-88 -258.5zM936 522q0 115 -47 199l-467 -492q80 -63 194 -63q143 0 231.5 100t88.5 256z" glyph-name="emptyset" horiz-adv-x="1228" unicode="∅"/><glyph d="M1229 1485v-182h-225v-1303h-211v1303h-281v-1303h-209v1303h-229v182h1155z" glyph-name="product" horiz-adv-x="1300" unicode="∏"/><glyph d="M1083 1485v-182h-766l426 -646l-428 -630h768v-187h-1017v160l440 657l-440 668v160h1017z" glyph-name="summation" horiz-adv-x="1150" unicode="∑"/><glyph d="M143 680h963v-186h-963v186z" glyph-name="minus" horiz-adv-x="1249" unicode="−"/><glyph d="M137 612h209l217 -506l541 1379h477v-180h-348l-561 -1403h-201z" glyph-name="radical" horiz-adv-x="1687" unicode="√"/><glyph d="M473 125q-182 0 -292.5 118.5t-110.5 301t110.5 304.5t292.5 122q141 0 241.5 -78t196.5 -213q100 137 199.5 214t243.5 77q180 0 290.5 -123t110.5 -303q0 -176 -110.5 -298t-290.5 -122q-141 0 -242.5 77t-200.5 210q-96 -133 -197.5 -210t-240.5 -77zM477 299 q84 0 160 55.5t178 190.5q-100 137 -175 193.5t-163 56.5q-102 0 -166.5 -69t-64.5 -181q0 -111 65.5 -178.5t165.5 -67.5zM1346 299q102 0 167.5 67.5t65.5 178.5q0 113 -66.5 181.5t-166.5 68.5q-88 0 -161 -56.5t-173 -193.5q102 -135 174 -190.5t160 -55.5z" glyph-name="infinity" horiz-adv-x="1824" unicode="∞"/><glyph d="M23 -293v160h71q88 0 123 50t35 167v1126q0 358 336 359h94v-162h-72q-88 0 -123.5 -52t-35.5 -171v-1121q0 -356 -326 -356h-102z" glyph-name="integral" horiz-adv-x="702" unicode="∫"/><glyph d="M872 606h27q6 -135 -57.5 -195.5t-151.5 -60.5q-76 0 -194.5 52.5t-157.5 52.5q-41 0 -60.5 -31t-15.5 -74h-119q-2 96 27 156h-27q-6 135 52.5 193.5t140.5 58.5q66 0 182.5 -51.5t165.5 -51.5q96 0 96 105h119q6 -91 -27 -154zM336 604q37 0 63 -8q-35 12 -61 12 q-20 0 -33 -6q11 2 31 2zM684 500q25 0 41 6q-12 -2 -35 -2q-43 0 -86 12q43 -16 80 -16z" glyph-name="approxequal" horiz-adv-x="1042" unicode="≈"/><glyph d="M1096 696h-293l-127 -235h420v-178h-514l-127 -236h-193l127 236h-199v178h293l127 235h-420v178h517l127 238h192l-127 -238h197v-178z" glyph-name="notequal" horiz-adv-x="1286" unicode="≠"/><glyph d="M977 287l-836 372v181l836 372v-221l-615 -243l615 -242v-219zM977 0h-836v178h836v-178z" glyph-name="lessequal" horiz-adv-x="1116" unicode="≤"/><glyph d="M139 287v219l617 242l-617 243v221l838 -372v-181zM139 0v178h838v-178h-838z" glyph-name="greaterequal" horiz-adv-x="1114" unicode="≥"/><glyph d="M190 1485h1446v-1483h-1446v1483z" glyph-name="filledbox" horiz-adv-x="1826" unicode="■"/><glyph d="M190 1485h1448v-1485h-1448v1485zM311 1360v-1235h1205v1235h-1205z" glyph-name="H22073" horiz-adv-x="1828" unicode="□"/><glyph d="M133 0l893 1503l897 -1503h-1790z" glyph-name="triagup" horiz-adv-x="2056" unicode="▲"/><glyph d="M133 0l893 1505l897 -1505h-1790zM319 109h1414l-707 1187z" glyph-name="uni25B3" horiz-adv-x="2056" unicode="△"/><glyph d="M647 0l-457 741l457 744h166l457 -744l-457 -741h-166zM1116 741l-387 635l-387 -635l387 -628z" glyph-name="lozenge" horiz-adv-x="1462" unicode="◊"/><glyph d="M954.5 -20q-315.5 0 -540 223t-224.5 540q0 315 224.5 538.5t539.5 223.5q317 0 541.5 -223t224.5 -538.5t-225 -539.5t-540.5 -224zM954.5 102q266.5 0 454.5 188.5t188 453t-188 451.5t-454.5 187t-454 -187t-187.5 -452q0 -266 187.5 -453.5t454 -187.5z" glyph-name="circle" horiz-adv-x="1912" unicode="○"/><glyph d="M960.5 -33q-319.5 0 -545 225.5t-225.5 544.5q0 317 225.5 541.5t545 224.5t544 -224t224.5 -542q0 -319 -224.5 -544.5t-544 -225.5z" glyph-name="H18533" horiz-adv-x="1918" unicode="●"/><glyph d="M1007.5 -18q-315.5 0 -538.5 223t-223 540q0 313 223 536.5t538.5 223.5t540 -223t224.5 -537q0 -315 -224.5 -539t-540 -224zM420 471l530 322v598q-248 -23 -419 -208.5t-171 -437.5q1 -145 60 -274zM1602 473q59 131 59 272q0 252 -170 436.5t-418 207.5v-596zM950 96 v553l-465 -289q80 -111 202 -180.5t263 -83.5zM1073 98q293 29 463 264l-463 287v-551z" glyph-name="uni262E" horiz-adv-x="2017" unicode="☮"/><glyph d="M1360 1141l121 -133l-912 -873l-450 502l129 121l327 -369z" glyph-name="uni2713" horiz-adv-x="1601" unicode="✓"/><glyph d="M889 -23q-326 0 -546 220.5t-220 544t220 543.5t546 220q324 0 543 -220t219 -543.5t-219 -544t-543 -220.5zM639 911l205 111v-725h155v891h-147l-213 -123v-154z" glyph-name="uni2776" horiz-adv-x="1773" unicode="❶"/><glyph d="M889 -23q-326 0 -546 220.5t-220 544t220 543.5t546 220q324 0 543 -220t219 -543.5t-219 -544t-543 -220.5zM616 299h570v139h-348l219 242q123 141 123 264q0 117 -80 187.5t-213 70.5t-217 -80t-82 -207h157q0 70 37 111t105 41q61 0 98 -34t37 -89q0 -80 -88 -174 l-318 -344v-127z" glyph-name="uni2777" horiz-adv-x="1773" unicode="❷"/><glyph d="M889 -23q-326 0 -546 220.5t-220 544t220 543.5t546 220q324 0 543 -220t219 -543.5t-219 -544t-543 -220.5zM883 285q139 0 224 71.5t85 190.5q0 156 -141 217q123 57 123 194q0 111 -82 176.5t-209 65.5q-139 0 -220 -78t-77 -202h159q-2 68 33 107.5t101 39.5 q59 0 96 -33t37 -86q0 -57 -38 -91t-114 -34h-57v-139h71q72 0 114 -35t42 -98q0 -57 -40 -94t-105 -37q-63 0 -103.5 38t-38.5 107h-159q-2 -127 80 -203.5t219 -76.5z" glyph-name="uni2778" horiz-adv-x="1773" unicode="❸"/><glyph d="M889 -23q-326 0 -546 220.5t-220 544t220 543.5t546 220q324 0 543 -220t219 -543.5t-219 -544t-543 -220.5zM965 297h155v168h103v137h-103v281h-155v-281h-240l315 586h-166l-321 -594v-129h412v-168z" glyph-name="uni2779" horiz-adv-x="1773" unicode="❹"/><glyph d="M889 -23q-326 0 -546 220.5t-220 544t220 543.5t546 220q324 0 543 -220t219 -543.5t-219 -544t-543 -220.5zM578 573q2 -129 88 -208.5t223 -79.5q143 0 230 85t87 222q0 133 -83 217t-218 84q-84 0 -141 -41l31 201h360v135h-489l-72 -510h158q31 82 133 82 q70 0 114.5 -46t44.5 -124q0 -76 -43 -123t-112 -47q-68 0 -110 43t-42 110h-159z" glyph-name="uni277A" horiz-adv-x="1773" unicode="❺"/><glyph d="M889 -23q-326 0 -546 220.5t-220 544t220 543.5t546 220q324 0 543 -220t219 -543.5t-219 -544t-543 -220.5zM551 727q0 -211 86 -326.5t250 -115.5q139 0 227 85t88 222q0 131 -83 214t-208 83q-141 0 -198 -92v37q2 94 43 162.5t135 68.5q55 0 92 -26.5t45 -73.5h158 q-10 106 -89 170.5t-200 64.5q-172 0 -259 -125t-87 -348zM886.5 422q-69.5 0 -112.5 47t-43 119q0 74 42 122t116 48q68 0 110.5 -46t42.5 -122t-43 -122t-112.5 -46z" glyph-name="uni277B" horiz-adv-x="1773" unicode="❻"/><glyph d="M889 -23q-326 0 -546 220.5t-220 544t220 543.5t546 220q324 0 543 -220t219 -543.5t-219 -544t-543 -220.5zM680 297h168l348 768v123h-592v-135h426z" glyph-name="uni277C" horiz-adv-x="1773" unicode="❼"/><glyph d="M889 -23q-326 0 -546 220.5t-220 544t220 543.5t546 220q324 0 543 -220t219 -543.5t-219 -544t-543 -220.5zM888.5 285q145.5 0 235.5 75.5t90 200.5q0 80 -39.5 143.5t-109.5 88.5q100 57 100 178q0 100 -74.5 164.5t-201.5 64.5q-129 0 -204 -63.5t-75 -165.5 q0 -123 99 -178q-68 -25 -108 -88.5t-40 -143.5q0 -125 91 -200.5t236.5 -75.5zM889 846q-55 0 -89 31.5t-34 81t34 80t89 30.5q53 0 87 -31.5t34 -79.5q0 -49 -34 -80.5t-87 -31.5zM889 420q-74 0 -121 40t-47 107q0 66 47 108t121 42q72 0 119 -42t47 -108 q0 -68 -46 -107.5t-120 -39.5z" glyph-name="uni277D" horiz-adv-x="1773" unicode="❽"/><glyph d="M889 -23q-326 0 -546 220.5t-220 544t220 543.5t546 220q324 0 543 -220t219 -543.5t-219 -544t-543 -220.5zM889 285q162 0 247 118.5t85 335.5q0 223 -89.5 342t-244.5 119q-139 0 -227.5 -85t-88.5 -222q0 -129 80 -212t203 -83q137 0 205 98v-39q0 -238 -172 -237 q-119 0 -135 102h-156q10 -106 90 -171.5t203 -65.5zM887 729q-70 0 -113 46t-43 120q0 76 44 123t112 47q70 0 111.5 -48t41.5 -120t-40.5 -120t-112.5 -48z" glyph-name="uni277E" horiz-adv-x="1773" unicode="❾"/><glyph d="M895 -23q-326 0 -546 220.5t-220 544t220 543.5t546 220q324 0 543 -220t219 -543.5t-219 -544t-543 -220.5zM895 104q270 0 452.5 182.5t182.5 454.5q0 270 -182.5 453.5t-452.5 183.5q-272 0 -455.5 -183t-183.5 -453.5t183.5 -454t455.5 -183.5zM645 911v154l213 123 h148v-891h-156v725z" glyph-name="uni2780" horiz-adv-x="1785" unicode="➀"/><glyph d="M889 1505q324 0 543 -220t219 -543.5t-219.5 -544t-542.5 -220.5q-326 0 -546 220.5t-220 544t220 543.5t546 220zM889 104q270 0 452.5 183.5t182.5 454t-182.5 453.5t-452.5 183q-272 0 -455.5 -183t-183.5 -453.5t183.5 -454t455.5 -183.5zM1057 680l-219 -242h348 v-139h-570v127l318 344q88 94 88 174q0 55 -37 89t-98 34q-68 0 -105 -41t-37 -111h-157q-2 127 82 207t217 80t213 -70.5t80 -187.5q0 -123 -123 -264z" glyph-name="uni2781" horiz-adv-x="1773" unicode="➁"/><glyph d="M889 1505q324 0 543 -220t219 -543.5t-219.5 -544t-542.5 -220.5q-326 0 -546 220.5t-220 544t220 543.5t546 220zM889 104q270 0 452.5 183.5t182.5 454t-182.5 453.5t-452.5 183q-272 0 -455.5 -183t-183.5 -453.5t183.5 -454t455.5 -183.5zM1051 764q141 -61 141 -217 q0 -119 -85 -190.5t-224 -71.5q-137 0 -219 76.5t-80 203.5h159q-2 -70 38 -107.5t104 -37.5q66 0 105.5 37t39.5 94q0 63 -42 98t-114 35h-71v139h57q76 0 114 34t38 91q0 53 -37 86t-96 33q-66 0 -101 -40t-33 -107h-159q-4 125 76.5 202.5t220.5 77.5q127 0 209 -65.5 t82 -176.5q0 -137 -123 -194z" glyph-name="uni2782" horiz-adv-x="1773" unicode="➂"/><glyph d="M889 -23q-326 0 -546 220.5t-220 544t220 543.5t546 220q324 0 543 -220t219 -543.5t-219 -544t-543 -220.5zM889 104q270 0 452.5 183.5t182.5 454t-182.5 453.5t-452.5 183q-272 0 -455.5 -183t-183.5 -453.5t183.5 -454t455.5 -183.5zM553 465v129l321 594h166 l-315 -586h240v281h155v-281h103v-137h-103v-168h-155v168h-412z" glyph-name="uni2783" horiz-adv-x="1773" unicode="➃"/><glyph d="M899 1505q324 0 544 -220t220 -543.5t-220 -544t-544 -220.5q-326 0 -546 220.5t-220 544t220 543.5t546 220zM899 104q270 0 453.5 183.5t183.5 454t-183.5 453.5t-453.5 183q-272 0 -454.5 -183t-182.5 -453.5t182.5 -454t454.5 -183.5zM918 893q133 0 216 -84t83 -217 q0 -137 -87.5 -222t-228.5 -85q-139 0 -224 79.5t-87 208.5h160q-2 -68 41 -110.5t108 -42.5q72 0 115 47t43 123q0 78 -45 124t-115 46q-102 0 -133 -82h-160l72 510h489v-135h-360l-29 -201q54 41 142 41z" glyph-name="uni2784" horiz-adv-x="1796" unicode="➄"/><glyph d="M889 1505q324 0 543 -220t219 -543.5t-219.5 -544t-542.5 -220.5q-326 0 -546 220.5t-220 544t220 543.5t546 220zM889 104q270 0 452.5 183.5t182.5 454t-182.5 453.5t-452.5 183q-272 0 -455.5 -183t-183.5 -453.5t183.5 -454t455.5 -183.5zM911 889q125 0 208 -83 t83 -214q0 -137 -88 -222t-227 -85q-164 0 -250 115.5t-86 326.5q0 223 87 348t259 125q121 0 200 -64.5t89 -170.5h-158q-8 47 -45 73.5t-92 26.5q-94 0 -135 -68.5t-43 -162.5v-35q57 90 198 90zM886.5 422q69.5 0 112.5 46t43 122t-43 122t-110 46q-74 0 -116 -48 t-42 -122q0 -72 43 -119t112.5 -47z" glyph-name="uni2785" horiz-adv-x="1773" unicode="➅"/><glyph d="M889 1505q324 0 543 -220t219 -543.5t-219.5 -544t-542.5 -220.5q-326 0 -546 220.5t-220 544t220 543.5t546 220zM889 104q270 0 452.5 183.5t182.5 454t-182.5 453.5t-452.5 183q-272 0 -455.5 -183t-183.5 -453.5t183.5 -454t455.5 -183.5zM604 1053v135h592v-123 l-348 -768h-168l350 756h-426z" glyph-name="uni2786" horiz-adv-x="1773" unicode="➆"/><glyph d="M889 1505q324 0 543 -220t219 -543.5t-219.5 -544t-542.5 -220.5q-326 0 -546 220.5t-220 544t220 543.5t546 220zM889 104q270 0 452.5 183.5t182.5 454t-182.5 453.5t-452.5 183q-272 0 -455.5 -183t-183.5 -453.5t183.5 -454t455.5 -183.5zM1065 793 q70 -25 109.5 -88.5t39.5 -143.5q0 -125 -90 -200.5t-235.5 -75.5t-236.5 75.5t-91 200.5q0 80 40 143.5t108 88.5q-98 55 -99 178q0 102 75 165.5t204 63.5q127 0 201.5 -64.5t74.5 -164.5q0 -121 -100 -178zM889 1069q-55 0 -89 -30.5t-34 -80t34 -81t89 -31.5 q53 0 87 31.5t34 80.5q0 47 -34 79t-87 32zM889 420q74 0 120 40t46 107q0 66 -47 108t-119 42q-74 0 -121 -42t-47 -108q0 -68 47 -107.5t121 -39.5z" glyph-name="uni2787" horiz-adv-x="1773" unicode="➇"/><glyph d="M889 1505q324 0 543 -220t219 -543.5t-219.5 -544t-542.5 -220.5q-326 0 -546 220.5t-220 544t220 543.5t546 220zM889 104q270 0 452.5 183.5t182.5 454t-182.5 453.5t-452.5 183q-272 0 -455.5 -183t-183.5 -453.5t183.5 -454t455.5 -183.5zM887 1200q156 0 245 -118.5 t89 -342.5q0 -217 -85 -335.5t-247 -118.5q-123 0 -203 65.5t-90 171.5h156q16 -102 135 -102q172 0 172 237v39q-68 -98 -205 -98q-123 0 -203 83t-80 212q0 137 88.5 222t227.5 85zM887 729q72 0 112.5 48t40.5 120t-42 120t-111 48q-68 0 -112 -47t-44 -123 q0 -74 43 -120t113 -46z" glyph-name="uni2788" horiz-adv-x="1773" unicode="➈"/><glyph d="M967 1290q-39 -49 -96.5 -79.5t-94.5 -36.5l-37 -7q0 2 -1 16.5l-2 29t2 38t9.5 46t20.5 51t35 55.5q47 61 107.5 95t97.5 38l39 2q-2 -8 2 -36.5t-16.5 -93.5t-65.5 -118zM512 0q-92 0 -185.5 108.5t-152.5 272.5t-59 317q0 213 112.5 339t257.5 126q61 0 144.5 -33.5 t118.5 -33.5q33 0 119.5 35.5t164.5 35.5q90 0 164 -38.5t102 -75.5l29 -39q-6 -4 -17.5 -10.5t-41 -32t-51 -56t-40 -83t-18.5 -109.5q0 -66 21.5 -121t51.5 -89t60.5 -58.5t50.5 -34.5l23 -10q-4 -16 -14.5 -44t-43 -98.5t-69.5 -124t-95.5 -97.5t-119.5 -44 q-41 0 -123 30.5t-131 30.5q-51 0 -137 -31.5t-121 -31.5z" glyph-name="uniF8FF" horiz-adv-x="1482" unicode=""/><glyph d="M182 1233v207h238v-207h-238zM197 0v1059h206v-1059h-206z" glyph-name="i.locl" horiz-adv-x="598"/><glyph d="M94 540.5q0 235.5 122 387t327 151.5q121 0 212 -55t132 -150v185h186v-1075q0 -199 -130 -306.5t-351 -107.5q-416 0 -467 350h203q31 -182 264 -182q133 0 204.5 58.5t71.5 168.5v252q-37 -92 -128 -145.5t-208 -53.5q-199 0 -318.5 143.5t-119.5 379zM309 547 q0 -170 79 -261t196 -91q121 0 197.5 86t86.5 223v90q-10 137 -86.5 222t-193.5 85q-121 0 -200 -92t-79 -262z" glyph-name="g.aalt" horiz-adv-x="1247"/><glyph d="M578 1079q207 0 306 -98t99 -274v-707h-192v188q-35 -96 -129.5 -152t-223.5 -56q-154 0 -248 85t-94 228q0 147 95.5 233t250.5 99l230 22q100 8 100 107q0 76 -54 116.5t-149 40.5q-104 0 -170.5 -49t-81.5 -133h-202q23 166 145.5 258t317.5 92zM780 453v53l-278 -23 q-197 -16 -197 -174q0 -76 50.5 -117.5t133.5 -41.5q129 0 210 86t81 217z" glyph-name="a.aalt" horiz-adv-x="1142"/><glyph d="M18 1059h222l297 -819q125 375 200 567l99 252h215l-578 -1469h-215l170 433z" glyph-name="y.aalt" horiz-adv-x="1069"/><glyph d="M1645 1485v-1485h-209v1290h-1026v-454h555v-185h-555v-454h757v-197h-972v1485h1450z" glyph-name="E_l.dlig" horiz-adv-x="1816"/><glyph d="M195 0v1485h1407v-195h-1192v-530h677v-189h-677v-571h-215zM1395 0v1059h207v-1059h-207z" glyph-name="F_i.dlig" horiz-adv-x="1761"/><glyph d="M1016 1296v207h258v-207h-258zM184 0v1485h213v-1286h852v-199h-1065zM1042 352v707h207v-707h-207z" glyph-name="L_i.dlig" horiz-adv-x="1431"/><glyph d="M1325 1362q-115 0 -159 -42t-44 -126v-135h658v-1059h-207v885h-451v-885h-207v885h-481v-885h-207v885h-176v174h176v129q0 348 385 348h219v-174h-194q-115 0 -159 -42t-44 -126v-135h481v129q0 348 379 348h486v-174h-455z" glyph-name="f_f_i.dlig" horiz-adv-x="1939"/><glyph d="M637 1362q-115 0 -159 -42t-44 -126v-135h658v-1059h-207v885h-451v-885h-207v885h-176v174h176v129q0 348 379 348h486v-174h-455z" glyph-name="f_i.dlig" horiz-adv-x="1251"/><glyph d="M637 1362q-115 0 -159 -42t-44 -126v-135h658v-1116q0 -358 -342 -359q-90 0 -156 19v176q41 -12 113 -12q102 -2 140 48t38 134v936h-451v-885h-207v885h-176v174h176v129q0 348 379 348h486v-174h-455z" glyph-name="f_j.dlig" horiz-adv-x="1251"/><glyph d="M1092 1536v-1536h-207v1362h-248q-115 0 -159 -42t-44 -126v-135h348v-174h-348v-885h-207v885h-176v174h176v129q0 348 379 348h486z" glyph-name="f_l.dlig" horiz-adv-x="1263"/><glyph d="M1524 1059h217l-473 -1198q-25 -63 -47.5 -103.5t-61.5 -86.5t-97 -67.5t-136 -21.5q-100 0 -158 29v170q225 -74 291 96l57 146l-340 862h-342v-885h-207v885h-176v174h176v135q0 70 14.5 128t48.5 112.5t99.5 86t155.5 31.5q84 0 145 -16v-168q-49 6 -92 6 q-57 0 -94 -17.5t-50.5 -53t-16.5 -61t-3 -75.5v-108h494l297 -819q125 375 200 567z" glyph-name="f_y.dlig" horiz-adv-x="1757"/><glyph d="M866 172h586v-172h-834v154l574 731h-758v-885h-207v885h-176v174h176v135q0 70 14.5 128t48.5 112.5t99.5 86t155.5 31.5q84 0 145 -16v-168q-49 6 -92 6q-57 0 -94 -17.5t-50.5 -53t-16.5 -61t-3 -75.5v-108h1010v-158z" glyph-name="f_z.dlig" horiz-adv-x="1544"/><glyph d="M1393 885h-254v-535q0 -104 36.5 -148t122.5 -44q37 0 95 8v-166q-88 -18 -148 -18q-311 0 -311 337v566h-473v-535q0 -104 37 -148t123 -44q37 0 94 8v-166q-88 -18 -148 -18q-311 0 -311 337v566h-219v174h90q74 0 101.5 30.5t27.5 96.5v168h205v-295h344 q74 0 101.5 30.5t27.5 96.5v168h205v-295h254v-174z" glyph-name="t_t.dlig" horiz-adv-x="1452"/><glyph d="M1626 1059h207v-1059h-186l-19 174q-37 -88 -128 -141t-208 -53q-168 0 -264 106.5t-96 284.5v514h-471v-535q0 -104 37 -148t123 -44q37 0 94 8v-166q-88 -18 -148 -18q-311 0 -311 337v566h-219v174h90q74 0 101.5 30.5t27.5 96.5v168h205v-295h678v-635 q0 -268 221 -268q133 0 199.5 89t66.5 236v578z" glyph-name="t_u.dlig" horiz-adv-x="1996"/><glyph d="M1610 1059h215l-471 -1198q-25 -63 -47.5 -103.5t-61.5 -86.5t-97 -67.5t-136 -21.5q-98 0 -160 29v170q225 -74 293 96l55 146l-340 862h-399v-535q0 -104 37 -148t123 -44q37 0 94 8v-166q-88 -18 -148 -18q-311 0 -311 337v566h-219v174h90q74 0 101.5 30.5t27.5 96.5 v168h205v-295h553l295 -819q125 375 200 567z" glyph-name="t_y.dlig" horiz-adv-x="1843"/><glyph d="M1038 172h586v-172h-833v154l573 731h-903v-535q0 -104 37 -148t123 -44q37 0 94 8v-166q-88 -18 -148 -18q-311 0 -311 337v566h-219v174h90q74 0 101.5 30.5t27.5 96.5v168h205v-295h1155v-158z" glyph-name="t_z.dlig" horiz-adv-x="1716"/><glyph d="M3996 1059h213l-310 -1059h-241l-68 219q-10 35 -55 216t-84 325q-88 -369 -139 -543l-64 -217h-250l-205 696l-202 -696h-242l-70 219q-8 33 -53 215t-84 326q-88 -369 -139 -543l-64 -217h-249l-205 696l-203 -696h-242l-69 219q-2 10 -25.5 103.5t-53.5 209t-61 228.5 q-68 -301 -137 -543l-63 -217h-252l-311 1059h221l114 -445q68 -240 109 -407q6 33 104 407l109 445h213l113 -445q20 -84 42.5 -168t40 -150.5t23.5 -88.5q8 37 46 179t61 228l114 445h219l115 -445q68 -240 109 -407q6 25 15 60.5t33.5 132t55.5 214.5l111 445h211 l112 -445q20 -76 45 -168t40.5 -150t21.5 -89q6 31 22.5 90t42 153.5t43.5 163.5l113 445h219l115 -445q88 -319 108 -407q6 25 15.5 60.5t34 132t55.5 214.5l110 445h211l113 -445q20 -76 45 -168t40 -150t21 -89q6 31 22.5 90t42.5 153.5t44 163.5z" glyph-name="w_w_w.dlig" horiz-adv-x="4278"/><glyph d="M534.5 -20q-200.5 0 -329.5 146t-129 400q0 256 129 403.5t332 147.5q201 0 328.5 -146.5t127.5 -400.5t-129 -402t-329.5 -148zM532.5 164q118.5 0 183 102.5t64.5 257.5q0 162 -65.5 266.5t-182.5 104.5q-115 2 -180 -102.5t-65 -264.5q0 -158 63.5 -261t182 -103z" glyph-name="zero.oldstyle" horiz-adv-x="1069"/><glyph d="M111 676v209l290 174h193v-1059h-209v831z" glyph-name="one.oldstyle" horiz-adv-x="770"/><glyph d="M696 397l-250 -221h445v-176h-746v156l398 360q70 63 101.5 113.5t31.5 109.5q0 76 -46 121t-122 45q-88 0 -139.5 -56t-49.5 -147h-208q4 170 114.5 273.5t286.5 103.5q170 0 274.5 -92t104.5 -244q0 -113 -53.5 -192.5t-141.5 -153.5z" glyph-name="two.oldstyle" horiz-adv-x="1030"/><glyph d="M852 358q223 -98 223 -358q0 -193 -137 -309.5t-363 -116.5q-227 0 -357 126t-124 335h213q-4 -137 69 -210t202 -73q127 0 204.5 68.5t77.5 183.5q0 123 -83 187.5t-220 64.5h-104v184h94q141 0 212.5 64.5t71.5 171t-70.5 166t-182.5 59.5q-131 0 -200 -75.5 t-65 -207.5h-213q-8 207 123 334t355 127q205 0 338 -105.5t133 -291.5q0 -228 -197 -324z" glyph-name="three.oldstyle" horiz-adv-x="1175"/><glyph d="M84 -135v176l571 1014h222l-568 -1008h479v518h207v-518h185v-182h-185v-295h-207v295h-704z" glyph-name="four.oldstyle" horiz-adv-x="1255"/><glyph d="M612 580q219 0 355.5 -138.5t136.5 -361.5q0 -225 -141.5 -365.5t-368.5 -140.5q-221 0 -356.5 131t-139.5 344h213q-2 -131 77 -212t206 -81q131 0 212 89t81 233q0 145 -84 233t-217 88q-90 0 -157 -40t-93 -107h-207l119 807h780v-187h-608l-58 -374q98 82 250 82z " glyph-name="five.oldstyle" horiz-adv-x="1196"/><glyph d="M678 975q205 0 339 -138.5t134 -357.5q0 -221 -141.5 -360t-362.5 -139q-272 0 -404 193.5t-132 533.5q0 375 136 586.5t417 211.5q195 0 319.5 -103.5t140.5 -277.5h-209q-14 94 -82.5 146.5t-173.5 52.5q-100 0 -170.5 -47t-104.5 -127t-47 -148.5t-15 -146.5v-61 q47 88 143 135t213 47zM645 164q129 0 210 87t81 230q0 141 -80 228.5t-209 87.5q-137 0 -215 -92.5t-78 -225.5q0 -131 79 -223t212 -92z" glyph-name="six.oldstyle" horiz-adv-x="1255"/><glyph d="M96 1059h979v-168l-641 -1297h-227l639 1280h-750v185z" glyph-name="seven.oldstyle" horiz-adv-x="1150"/><glyph d="M874 825q113 -45 179.5 -150.5t66.5 -242.5q0 -205 -142 -330t-377.5 -125t-378 125t-142.5 330q0 135 66.5 241.5t179.5 151.5q-166 98 -166 301q0 170 118.5 274.5t321.5 104.5t321.5 -104.5t118.5 -274.5q0 -203 -166 -301zM598 1327q-102 0 -165.5 -59.5 t-63.5 -153.5q0 -96 64.5 -158.5t166.5 -62.5t166.5 62.5t64.5 158.5q0 94 -64.5 153.5t-168.5 59.5zM600 162q137 0 221 76.5t84 201.5q0 127 -85 207t-220 80t-220 -80t-85 -207q0 -125 85 -201.5t220 -76.5z" glyph-name="eight.oldstyle" horiz-adv-x="1198"/><glyph d="M610 1079q264 0 399.5 -204.5t135.5 -567.5q0 -342 -131 -537.5t-400 -195.5q-199 0 -325.5 104.5t-143.5 278.5h207q14 -96 83 -148.5t177 -52.5q317 0 318 449v69q-49 -90 -145.5 -140t-213.5 -50q-203 0 -334 138t-131 356q0 225 140.5 363t363.5 138zM612 262 q135 0 213 92t78 225.5t-77.5 224.5t-213.5 91q-129 0 -209.5 -87t-80.5 -230q0 -141 79.5 -228.5t210.5 -87.5z" glyph-name="nine.oldstyle" horiz-adv-x="1253"/><glyph d="M637 -12q-248 0 -391.5 192.5t-143.5 567.5q0 381 146.5 569t388.5 188q248 0 391 -192.5t143 -564.5q0 -381 -145 -570.5t-389 -189.5zM635 172q319 0 319 571q0 578 -317.5 578t-317.5 -569q1 -580 316 -580zM532 657v181h209v-181h-209z" glyph-name="zero.salt" horiz-adv-x="1275"/><glyph d="M639 1505q248 0 391.5 -192.5t143.5 -564.5q0 -381 -145.5 -570.5t-389.5 -189.5q-248 0 -391.5 192.5t-143.5 567.5q0 381 146.5 569t388.5 188zM639 1321q-299 0 -315 -500h630q-18 500 -315 500zM637 172q301 0 317 502h-630q18 -502 313 -502z" glyph-name="zero.ss02" horiz-adv-x="1277"/><glyph d="M633 1505q250 0 384 -197.5t134 -564.5q0 -375 -136 -569t-384 -194q-256 0 -387 197.5t-131 565.5q0 375 134 568.5t386 193.5zM633 1321q-305 0 -305 -573q0 -51 2 -76l583 338q-57 311 -280 311zM631 164q303 0 303 575q0 47 -2 70l-584 -334q58 -311 283 -311z" glyph-name="zero.tnum" horiz-adv-x="1263"/><glyph d="M743 186h371v-186h-973v186h396v1071l-336 -188v209l352 207h190v-1299z" glyph-name="one.tnum" horiz-adv-x="1263"/><glyph d="M479 195h623v-195h-914v180l523 580q90 100 128 170.5t38 148.5q0 115 -69 179.5t-187 64.5q-125 0 -197 -79t-70 -206h-211q-2 207 130.5 337t347.5 130q213 0 342 -114.5t129 -303.5q0 -113 -51.5 -215t-172.5 -237z" glyph-name="two.tnum" horiz-adv-x="1263"/><glyph d="M899 782q104 -47 163.5 -144t59.5 -226q0 -195 -137 -313.5t-362 -118.5q-227 0 -357.5 128t-124.5 341h213q-4 -141 69 -215t202 -74q127 0 204.5 69.5t77.5 184.5q0 133 -81 198.5t-222 65.5h-104v186h94q141 0 213 62.5t72 171t-71 168t-185 59.5q-123 0 -195 -79 t-68 -208h-213q-4 211 126 339t352 128q205 0 338 -107.5t133 -295.5q0 -104 -52.5 -188.5t-144.5 -131.5z" glyph-name="three.tnum" horiz-adv-x="1263"/><glyph d="M90 295v176l565 1014h222l-562 -1008h471v516h207v-516h183v-182h-183v-295h-207v295h-696z" glyph-name="four.tnum" horiz-adv-x="1263"/><glyph d="M643 985q219 0 355.5 -137t136.5 -361q0 -227 -140.5 -367t-369.5 -140q-221 0 -357.5 130t-138.5 345h215q-2 -129 76 -210t207 -81t210 88t81 231q0 145 -84 233.5t-216 88.5q-92 0 -157.5 -40t-91.5 -108h-207l119 828h780v-187h-608l-58 -393q96 80 248 80z" glyph-name="five.tnum" horiz-adv-x="1263"/><glyph d="M678 975q205 0 339 -138.5t134 -357.5q0 -223 -140.5 -361t-363.5 -138q-270 0 -403 193.5t-133 533.5q0 375 136 586.5t417 211.5q195 0 319.5 -103.5t140.5 -277.5h-209q-14 94 -82.5 146.5t-173.5 52.5q-100 0 -169.5 -48t-103.5 -127t-47 -149.5t-15 -144.5v-61 q47 88 143 135t211 47zM647 164q129 0 209 87t80 230q0 141 -80 228.5t-209 87.5q-137 0 -214 -92.5t-77 -225.5q0 -131 78 -223t213 -92z" glyph-name="six.tnum" horiz-adv-x="1263"/><glyph d="M141 1485h979v-168l-651 -1317h-227l649 1300h-750v185z" glyph-name="seven.tnum" horiz-adv-x="1263"/><glyph d="M907 823q111 -45 175.5 -150.5t64.5 -240.5q0 -203 -140.5 -329t-373.5 -126q-236 0 -376 126t-140 329q0 137 66.5 242.5t176.5 150.5q-172 98 -172 303q0 170 122 273.5t323 103.5t321.5 -103.5t120.5 -275.5q0 -207 -168 -303zM630.5 1327q-106.5 0 -170 -58.5 t-63.5 -154.5q0 -98 65.5 -159.5t170 -61.5t169 61.5t64.5 159.5q0 96 -64.5 154.5t-171 58.5zM633 162q135 0 218 76.5t83 201.5q0 127 -83 207t-218 80q-137 0 -220 -80t-83 -207q0 -125 83 -201.5t220 -76.5z" glyph-name="eight.tnum" horiz-adv-x="1263"/><glyph d="M625 1505q264 0 399 -204.5t135 -567.5q0 -356 -131 -554.5t-399 -198.5q-199 0 -325 104t-142 278h205q14 -96 82.5 -147t177.5 -51q317 0 317 469v65q-51 -90 -146.5 -138t-211.5 -48q-201 0 -333 138t-132 356q0 223 140.5 361t363.5 138zM627 690q135 0 213 91 t78 224.5t-78 224.5t-213 91q-129 0 -210 -87t-81 -228q0 -143 80 -229.5t211 -86.5z" glyph-name="nine.tnum" horiz-adv-x="1263"/><glyph d="M416 -8q-168 0 -262.5 128t-94.5 365q0 246 97.5 370t261.5 124q170 0 264 -128t94 -366q0 -246 -98 -369.5t-262 -123.5zM416 133q188 0 188 350q0 354 -186 355q-188 0 -189 -349q1 -356 187 -356z" glyph-name="zero.dnom" horiz-adv-x="835"/><glyph d="M143 670v161l224 134h151v-965h-162v793z" glyph-name="one.dnom" horiz-adv-x="712"/><glyph d="M334 145h385v-145h-613v133l345 375q96 104 96 188q0 68 -41 105t-111 37q-74 0 -114.5 -46.5t-40.5 -121.5h-164q-2 137 87 223t232.5 86t230.5 -77t87 -202q0 -135 -138 -286z" glyph-name="two.dnom" horiz-adv-x="790"/><glyph d="M590 504q154 -59 153 -236q0 -127 -92 -204.5t-241.5 -77.5t-237.5 84t-84 221h166q-2 -78 42 -122t116 -44q74 0 118.5 42t44.5 107q0 72 -48 111t-126 39h-75v143h61q82 0 124 38t42 102q0 61 -40 97t-105 36q-76 0 -115 -45t-37 -119h-166q-4 137 84 220t236 83 q139 0 227 -70.5t88 -191.5q0 -147 -135 -213z" glyph-name="three.dnom" horiz-adv-x="835"/><glyph d="M57 182v137l353 646h174l-348 -639h268v311h162v-311h112v-144h-112v-182h-162v182h-447z" glyph-name="four.dnom" horiz-adv-x="833"/><glyph d="M430 645q145 0 235.5 -90t90.5 -236q0 -150 -95.5 -241.5t-246.5 -91.5q-150 0 -241 87t-93 224h166q-2 -72 44 -120t124 -48t126 52t48 134q0 86 -50.5 138.5t-129.5 52.5q-111 0 -146 -90h-164l78 549h524v-142h-391l-33 -225q60 47 154 47z" glyph-name="five.dnom" horiz-adv-x="833"/><glyph d="M457 639q135 0 224 -90t89 -232q0 -147 -95 -238t-245 -91q-176 0 -267 125t-91 350q0 242 93 379t277 137q131 0 215 -68.5t95 -185.5h-164q-8 53 -49 84t-101 31q-76 0 -124 -49.5t-62 -102.5t-16 -117v-32q65 100 221 100zM430 129q78 0 126 52t48 136t-48 135.5 t-124 51.5q-80 0 -127 -55.5t-47 -133.5q0 -80 47 -133t125 -53z" glyph-name="six.dnom" horiz-adv-x="833"/><glyph d="M88 965h651v-129l-379 -836h-174l379 823h-477v142z" glyph-name="seven.dnom" horiz-adv-x="833"/><glyph d="M608 537q74 -27 117 -97.5t43 -154.5q0 -135 -98.5 -217t-254 -82t-252.5 82t-97 217q0 86 43 155.5t116 96.5q-106 63 -106 194q0 109 81 178.5t216 69.5q137 0 218 -69.5t81 -178.5q-1 -133 -107 -194zM415.5 842q-59.5 0 -97 -35t-37.5 -88q0 -55 37.5 -91t97 -36 t98.5 36t39 91q0 53 -39 88t-98.5 35zM416 127q80 0 133 45t53 119t-52 121t-134 47t-133.5 -47t-51.5 -121t51.5 -119t133.5 -45z" glyph-name="eight.dnom" horiz-adv-x="833"/><glyph d="M399 979q170 0 264.5 -130t94.5 -372q0 -236 -91.5 -363.5t-265.5 -127.5q-133 0 -218 70.5t-95 185.5h160q8 -53 49 -83t102 -30q190 0 191 266v41q-68 -109 -223 -108q-133 0 -219.5 89t-86.5 230q0 147 94 239.5t244 92.5zM399 463q80 0 127 54t47 134t-47 133.5 t-127 53.5q-74 0 -123 -52.5t-49 -136.5q0 -82 48 -134t124 -52z" glyph-name="nine.dnom" horiz-adv-x="833"/><glyph d="M416 512q-168 0 -262.5 128t-94.5 366q0 246 97.5 369.5t261.5 123.5q170 0 264 -128t94 -365q0 -246 -98 -370t-262 -124zM416 653q188 0 188 351q0 354 -186 354q-188 0 -189 -348q1 -357 187 -357z" glyph-name="zero.numr" horiz-adv-x="835"/><glyph d="M143 1190v162l224 133h151v-965h-162v793z" glyph-name="one.numr" horiz-adv-x="712"/><glyph d="M334 666h385v-146h-613v133l345 375q96 104 96 189q0 68 -41 104.5t-111 36.5q-74 0 -114.5 -46t-40.5 -122h-164q-2 137 87 223t232.5 86t230.5 -76.5t87 -201.5q0 -135 -138 -287z" glyph-name="two.numr" horiz-adv-x="790"/><glyph d="M590 1024q154 -59 153 -236q0 -127 -92 -204.5t-241.5 -77.5t-237.5 84t-84 221h166q-2 -78 42 -122t116 -44q74 0 118.5 42t44.5 108q0 72 -48 110.5t-126 38.5h-75v143h61q82 0 124 38t42 102q0 61 -40 97t-105 36q-76 0 -115 -45t-37 -119h-166q-4 137 84 220t236 83 q139 0 227 -70.5t88 -191.5q0 -147 -135 -213z" glyph-name="three.numr" horiz-adv-x="835"/><glyph d="M57 702v138l353 645h174l-348 -639h268v311h162v-311h112v-144h-112v-182h-162v182h-447z" glyph-name="four.numr" horiz-adv-x="833"/><glyph d="M430 1165q145 0 235.5 -90t90.5 -235q0 -150 -95.5 -242t-246.5 -92q-150 0 -241 87t-93 224h166q-2 -72 44 -120t124 -48t126 52.5t48 134.5q0 86 -50.5 138t-129.5 52q-111 0 -146 -90h-164l78 549h524v-142h-391l-33 -225q60 47 154 47z" glyph-name="five.numr" horiz-adv-x="833"/><glyph d="M457 1159q135 0 224 -90t89 -231q0 -147 -95 -238.5t-245 -91.5q-176 0 -267 125t-91 350q0 242 93 379t277 137q131 0 215 -68.5t95 -185.5h-164q-8 53 -49 84t-101 31q-186 0 -202 -268v-33q65 100 221 100zM430 649q78 0 126 52.5t48 136.5t-48 135t-124 51 q-80 0 -127 -55.5t-47 -132.5q0 -80 47 -133.5t125 -53.5z" glyph-name="six.numr" horiz-adv-x="833"/><glyph d="M88 1485h651v-129l-379 -836h-174l379 823h-477v142z" glyph-name="seven.numr" horiz-adv-x="833"/><glyph d="M608 1057q74 -27 117 -97.5t43 -154.5q0 -135 -98.5 -217t-254 -82t-252.5 82t-97 217q0 86 43 155.5t116 96.5q-106 61 -106 194q0 109 81 178.5t216 69.5q137 0 218 -69.5t81 -178.5q-1 -133 -107 -194zM415.5 1362q-59.5 0 -97 -35t-37.5 -88q0 -55 37.5 -91t97 -36 t98.5 36t39 91q0 53 -39 88t-98.5 35zM416 647q80 0 133 45t53 119t-52 121t-134 47t-133.5 -47t-51.5 -121t51.5 -119t133.5 -45z" glyph-name="eight.numr" horiz-adv-x="833"/><glyph d="M399 1499q170 0 264.5 -130t94.5 -372q0 -236 -91.5 -363.5t-265.5 -127.5q-131 0 -217 69.5t-96 186.5h160q8 -53 49 -83t102 -30q190 0 191 266v41q-68 -109 -223 -108q-133 0 -219.5 89t-86.5 230q0 147 94 239.5t244 92.5zM399 983q80 0 127 54.5t47 134t-47 133 t-127 53.5q-74 0 -123 -52.5t-49 -136.5q0 -82 48 -134t124 -52z" glyph-name="nine.numr" horiz-adv-x="833"/><glyph d="M602 -262q-172 0 -247.5 90t-75.5 260v301q0 74 -15.5 121t-47.5 67.5t-51.5 26.5t-58.5 12v158q35 6 54.5 13.5t52.5 29t49.5 68.5t16.5 116v302q0 174 72.5 261t250.5 87h68v-148h-58q-96 0 -132 -45t-36 -151v-363q0 -100 -48 -163.5t-128 -75.5v-7q74 -16 125 -80.5 t51 -156.5v-363q0 -100 37 -155.5t133 -55.5h58v-149h-70z" glyph-name="braceleft.aalt" horiz-adv-x="671"/><glyph d="M6 -262v149h57q172 0 173 211v363q0 92 50 156.5t122 80.5v7q-78 12 -125 75.5t-47 163.5v363q0 104 -37 150t-133 46h-58v148h68q178 0 250.5 -87t70.5 -261v-302q0 -70 16.5 -116.5t50.5 -68t54.5 -29t54.5 -13.5v-158q-41 -6 -60 -12t-52 -26.5t-48.5 -67.5 t-15.5 -121v-301q4 -350 -321 -350h-70z" glyph-name="braceright.aalt" horiz-adv-x="677"/><glyph d="M1786 0l-86 86l459 461h-1893v119h1893l-459 458l86 86l602 -606z" glyph-name="glyph487" horiz-adv-x="2613"/><glyph d="M449 547l458 -461l-88 -86l-600 604l600 606l88 -86l-458 -458h1892v-119h-1892z" glyph-name="glyph488" horiz-adv-x="2607"/><glyph d="M2046 1503q221 0 359.5 -142t138.5 -345q0 -205 -140.5 -343t-357.5 -138q-215 0 -355.5 138t-140.5 343q0 203 137.5 345t358.5 142zM1100 367v1118h213v-1485h-213l-692 1116v-1116h-213v1485h213zM2046 715q129 0 207 88t78 217q0 131 -77 218t-206 87t-207 -87 t-78 -218q0 -133 79 -219t204 -86zM1726 119v176h641v-176h-641z" glyph-name="afii61352.aalt" horiz-adv-x="2680"/></font>
</defs>
</svg>
